<svg xmlns="http://www.w3.org/2000/svg" viewBox="0 0 750 500"><defs><style>.cls-1{fill:#fff}.cls-3{opacity:.2}</style></defs><g id="Layer_2" data-name="Layer 2"><path id="BACKGROUND" d="M0 0h750v500H0z" class="cls-1"/><g id="OBJECTS"><g style="opacity:.2"><path d="M451.08 112.93c-12.93-4.83-23.85 1.33-29.15 5.36-4.42-4.78-13.39-11.92-26-9.26 0 0 11.92.3 20.39 9.25a9.84 9.84 0 0 0-1.09-.14 4 4 0 0 0-3 .85 2.11 2.11 0 0 1 1.5.54c.43.35.77.78 1.17 1.16a7.92 7.92 0 0 0 4.84 1.91 27.54 27.54 0 0 0 5.28-.31 18 18 0 0 1 5.28-.06c-.16 0-.53-.54-.69-.66a5.2 5.2 0 0 0-.91-.54 8.05 8.05 0 0 1-1.26-.75 7.69 7.69 0 0 0-1.15-.7 44.83 44.83 0 0 1 24.79-6.65ZM499.4 125.56c-8-3-14.77.82-18 3.32-2.74-3-8.29-7.39-16.1-5.74a19.75 19.75 0 0 1 12.63 5.73c-.23 0-.45-.07-.68-.09a2.5 2.5 0 0 0-1.86.53 1.25 1.25 0 0 1 .93.34c.27.21.48.48.73.71a4.83 4.83 0 0 0 3 1.18 16.28 16.28 0 0 0 3.27-.19 11.56 11.56 0 0 1 3.27 0c-.09 0-.33-.34-.42-.41a3.3 3.3 0 0 0-.57-.34 5.51 5.51 0 0 1-.78-.46 4.8 4.8 0 0 0-.71-.43 27.74 27.74 0 0 1 15.29-4.15ZM535.52 108.53c-6-2.26-11.17.62-13.65 2.51-2.06-2.24-6.27-5.59-12.17-4.34a14.92 14.92 0 0 1 9.55 4.33 4.43 4.43 0 0 0-.51-.06 1.94 1.94 0 0 0-1.41.39 1 1 0 0 1 .7.26 7 7 0 0 1 .55.54 3.65 3.65 0 0 0 2.27.89 12.8 12.8 0 0 0 2.47-.14 8.52 8.52 0 0 1 2.47 0c-.07 0-.25-.25-.32-.31a3 3 0 0 0-.43-.25 4.36 4.36 0 0 1-.59-.35 3.32 3.32 0 0 0-.53-.33 21 21 0 0 1 11.6-3.14ZM470.8 146.65c-7-5.42-13.78.2-17.15 4-2.14-5-6.7-12.52-14.14-10.47 0 0 7.19.92 11.26 11-.36 0-.72 0-1.08-.08-1.06-.14-2.1-.43-3.17-.5a4 4 0 0 0-3 .85 2.11 2.11 0 0 1 1.5.54c.43.35.77.78 1.17 1.16A7.92 7.92 0 0 0 451 155a27.54 27.54 0 0 0 5.28-.31 18 18 0 0 1 5.28-.06c-.16 0-.53-.54-.69-.66a5.2 5.2 0 0 0-.91-.54 8.05 8.05 0 0 1-1.26-.75 7.19 7.19 0 0 0-2.42-1.19 14.25 14.25 0 0 1 14.52-4.84Z"/></g><path d="M0 352.13V500h750v-84.35C462.76 311.6 0 352.13 0 352.13ZM298.33 167.36l.78.23a3.78 3.78 0 0 0 1.38 1.34l1.43.81a10.48 10.48 0 0 0-.05-1.76 3 3 0 0 0-1.05-1.95 2.07 2.07 0 0 0-1.37-.3 1 1 0 0 0-.28.27 4.09 4.09 0 0 0-1.78-1.72 1.84 1.84 0 0 0-1.38 0s-.46.57.17 1.62a3.87 3.87 0 0 0 2.15 1.46ZM285.84 154.41l.78.22A3.63 3.63 0 0 0 288 156l1.43.81a10.48 10.48 0 0 0-.05-1.76 3.05 3.05 0 0 0-1.05-2 2.07 2.07 0 0 0-1.37-.3.89.89 0 0 0-.28.27 4.09 4.09 0 0 0-1.78-1.72 1.81 1.81 0 0 0-1.38.05s-.46.56.16 1.61a3.93 3.93 0 0 0 2.16 1.45ZM301.36 170.05a1.35 1.35 0 0 0-.52.89 9.7 9.7 0 0 0-.94-1.25 3.37 3.37 0 0 0-2.2-1.14 2.29 2.29 0 0 0-1.45.59 1.45 1.45 0 0 0 .45 1.63 3.45 3.45 0 0 0 2.52.66l1.59-.14a2.36 2.36 0 0 0 0 .37 3.2 3.2 0 0 0 1.52 1.93l1.44.88a12.42 12.42 0 0 0 0-1.95 3.28 3.28 0 0 0-1-2.16 1.94 1.94 0 0 0-1.41-.31ZM296.66 216.4l1.84-.28a11 11 0 0 0-1.27-1.52 3.42 3.42 0 0 0-2.3-1 2.42 2.42 0 0 0-1.43.69 1.47 1.47 0 0 0 .57 1.62 3.45 3.45 0 0 0 2.59.49ZM177.19 206.37c.25-1.22-.46-1.55-.46-1.55a2.38 2.38 0 0 0-1.49.52 4.12 4.12 0 0 0-1.2 2.33 12.83 12.83 0 0 0-.13 2l1.57-1.1a4.2 4.2 0 0 0 1.71-2.2ZM293.1 217.35a3 3 0 0 0-.85.05 2.17 2.17 0 0 0-.59 2.3 4.44 4.44 0 0 0 2.31 2.56c1 .55 2.08 1.09 2.08 1.09a18 18 0 0 0-.2-2.72 5.42 5.42 0 0 0-.43-1.36 5.16 5.16 0 0 0 .89 0l1.84-.28a11.65 11.65 0 0 0-1.27-1.52 3.34 3.34 0 0 0-2.29-1 2.38 2.38 0 0 0-1.44.68 1.82 1.82 0 0 0-.05.2ZM218.23 141.59s.53-.88 1-1.74a4.58 4.58 0 0 0 .69-3c-.31-1.42-1.15-1.54-1.15-1.54a2.19 2.19 0 0 0-1.21 1.08 4.83 4.83 0 0 0-.12 3 17.18 17.18 0 0 0 .79 2.2ZM296.43 197.84a2.32 2.32 0 0 0-1.43.69 1.46 1.46 0 0 0 .56 1.62 3.49 3.49 0 0 0 2.59.49l1.84-.28a11.65 11.65 0 0 0-1.27-1.52 3.34 3.34 0 0 0-2.29-1ZM296.81 177.78a2.34 2.34 0 0 0-1.43.68 1.49 1.49 0 0 0 .57 1.63 3.48 3.48 0 0 0 2.59.49l1.84-.28a12.64 12.64 0 0 0-1.27-1.52 3.38 3.38 0 0 0-2.3-1Z" class="cls-3"/><path d="M177.16 191.79a3.52 3.52 0 0 0-2.16 1.43 12.39 12.39 0 0 0-1 1.78l1.92-.05a5.15 5.15 0 0 0 .94-.12 3.79 3.79 0 0 0 0 2.23 12.65 12.65 0 0 0 .77 2s.56-.73 1.1-1.46l.27-.41h.11a5.88 5.88 0 0 0 1 0 4.32 4.32 0 0 0-.67 1.68 12.09 12.09 0 0 0-.12 2s.8-.55 1.57-1.1a4.23 4.23 0 0 0 1.71-2.18 1.42 1.42 0 0 0-.34-1.47 1.07 1.07 0 0 0 .16-1 2.4 2.4 0 0 0-1.48-.54 3.83 3.83 0 0 0-1.48.44 1.86 1.86 0 0 0-.84-1.24 1.72 1.72 0 0 0 .28-1 3.48 3.48 0 0 0 .72.31l1.63.51a14 14 0 0 0-.53-2 3.9 3.9 0 0 0-1.12-1.61 2.76 2.76 0 0 0 1.34-.84 1.71 1.71 0 0 0 .31-2 2.12 2.12 0 0 0-.25-.15 2.81 2.81 0 0 0-.44-.47l1-1.64.18-.35.24-.09a6.11 6.11 0 0 0 .75-.4 12.67 12.67 0 0 0 .52 1.42 6.7 6.7 0 0 0-1.48 3.14 27.62 27.62 0 0 0-.41 3s.92-.62 1.8-1.25a5.45 5.45 0 0 0 2.1-2.89 4.42 4.42 0 0 0 .14-1.22l.14-.09.37-.11a4.29 4.29 0 0 0-.48 1.4 12.83 12.83 0 0 0-.13 2l.43-.3c-.06.57-.08 1-.08 1l.43-.2a6.45 6.45 0 0 0-1.3 3.47 1.75 1.75 0 0 0-.56.34 4.16 4.16 0 0 0-1.21 2.33 12.23 12.23 0 0 0-.12 2l1.57-1.1a6.43 6.43 0 0 0 1-.94 1.92 1.92 0 0 0 .19 1.22 3.28 3.28 0 0 0 1.26 1.28l-.18.39h.88l1.25.51a5 5 0 0 0-.78 2 15.44 15.44 0 0 0-.16 2.09 2.2 2.2 0 0 0-.46.38 2.39 2.39 0 0 0-.84.26c-.1-.41-.22-.86-.36-1.26a6.43 6.43 0 0 0-1.15-2.1 4.52 4.52 0 0 0 1.31.67c.76.24 1.53.46 1.53.46a16.65 16.65 0 0 0-.82-1.85 4.2 4.2 0 0 0-1.74-1.79 1.5 1.5 0 0 0-1.26.06s-.39.59.24 1.67a1.85 1.85 0 0 0 .19.27 1.52 1.52 0 0 0-1.38-.15s-.53.67 0 2.16a1.6 1.6 0 0 0 .1.23 1.89 1.89 0 0 0-.77.09 4.55 4.55 0 0 0-2.31 2.28 10.68 10.68 0 0 0-.55 1.31 2 2 0 0 0-1.23.26 4.3 4.3 0 0 0-1.61 2.6 17.29 17.29 0 0 0-.32 2.51s1-.44 1.91-.89a4 4 0 0 0 2.17-2.23 2.62 2.62 0 0 0 0-1.32l.81-.17a4.83 4.83 0 0 0 .94-.29 2.58 2.58 0 0 0-.43.67 4.67 4.67 0 0 0 0 3.11c.05.14.09.28.14.42a2.77 2.77 0 0 0-.81 0 3.7 3.7 0 0 0-2.11 1.35c-.51.61-1 1.24-1 1.24a16.5 16.5 0 0 0 2-.06 4.19 4.19 0 0 0 2.31-.93l.08-.1a16.27 16.27 0 0 0 1.29-2 4.91 4.91 0 0 0 .56-3 2.18 2.18 0 0 0-1-1.36 2.81 2.81 0 0 0 1.17-2 4.68 4.68 0 0 0 .64.42l.59.32a4.19 4.19 0 0 0-.47.87 1.73 1.73 0 0 0-.67.89A3.25 3.25 0 0 0 185 209l.09.19c.44.78.91 1.59.91 1.59a11.39 11.39 0 0 0 .95-1.71 3.48 3.48 0 0 0 .29-1.53l.52-.23.33-.16v.44a1.74 1.74 0 0 0-.46.54 3.31 3.31 0 0 0-.3 1.07 4.43 4.43 0 0 0-.82 2.15 7.92 7.92 0 0 0 0 1 1.34 1.34 0 0 0-.3-.46 2 2 0 0 0-1.57.12 3.81 3.81 0 0 0-1.49 2.28 15 15 0 0 0-.34 2.24s.88-.37 1.72-.75a3.59 3.59 0 0 0 2-1.95 2.51 2.51 0 0 0 .1-.49l.57-.45a1.93 1.93 0 0 0-.7 1.37 3.52 3.52 0 0 0 1.06 2.48c.62.67 1.27 1.34 1.27 1.34a15.42 15.42 0 0 0 .51-1.85 5.45 5.45 0 0 0 1.95 1.34c.94.4 1.91.78 1.91.78s-.15-.68-.4-1.42l1 .26a5.06 5.06 0 0 0 1.31.14c0 .11 0 .22-.07.33a2.16 2.16 0 0 0-.64.17 1.68 1.68 0 0 0-.09 1.78 1.18 1.18 0 0 0 .16.29 1.61 1.61 0 0 0-.62 0 3.52 3.52 0 0 0-2.16 1.43 12.39 12.39 0 0 0-1 1.78h1.36v.1a12.67 12.67 0 0 0 0 2s.66-.52 1.34-1.08a4.51 4.51 0 0 0 .15 1.06c.1.35.24.73.37 1.07a4.59 4.59 0 0 0-.34 1.3 12.67 12.67 0 0 0 0 2l1.38-1.11c.3.74.61 1.35.61 1.35s.64-.88 1.24-1.74a4.15 4.15 0 0 0 .79-3.07 2.37 2.37 0 0 0-1.16-1.59l.26-.2a4.35 4.35 0 0 0 1.59-2.33c.17-1.26-.58-1.54-.58-1.54a1.81 1.81 0 0 0-.44.07c-.07-.13-.13-.27-.2-.39a4.08 4.08 0 0 0 1.69-2h.15v.4s.86-.38 1.73-.8a4.18 4.18 0 0 0-.59 1 7.25 7.25 0 0 0-.44 1.78l.15-.07a2 2 0 0 0-.06.23 11.48 11.48 0 0 0-.12 1.7 4.92 4.92 0 0 0-.7 1.88 17.76 17.76 0 0 0-.16 2.56s1-.51 1.88-1a5 5 0 0 0 1.54-1.34v.14l1.9-.89.24-.13a2.4 2.4 0 0 0 .11.23.41.41 0 0 0 0 .09l-.13.07a3.9 3.9 0 0 0-1.35 2.41 11.38 11.38 0 0 0-.17 1.57 1.94 1.94 0 0 0-1.23.35 2 2 0 0 0-.35.32 1.92 1.92 0 0 0-.61-1.56 2.31 2.31 0 0 0-1.76.29 4.35 4.35 0 0 0-1.46 2.74 17.13 17.13 0 0 0-.15 2.56l1.87-1a5.39 5.39 0 0 0 1.05-.78 1.06 1.06 0 0 0 0 .19 17.76 17.76 0 0 0-.16 2.56s1-.51 1.87-1a5.32 5.32 0 0 0 1.29-1 4.57 4.57 0 0 0 1 1.8l1.14 1.31a15.17 15.17 0 0 0 .33-2v-.35l1-.51a3.66 3.66 0 0 0 1.89-2.1 1.9 1.9 0 0 0-.45-1.95 2.1 2.1 0 0 0-1.58.22 3.93 3.93 0 0 0-1.34 2.33L205 229a1.78 1.78 0 0 0-1.06-.69 2.15 2.15 0 0 0-.37-1.27l.89-.46a4.43 4.43 0 0 0 1.58-1.4 4.42 4.42 0 0 0 1.54-.51l.55.19a4.77 4.77 0 0 0 .65 1.41 16 16 0 0 0-.29 2l1.43-.62.45.47.24-.81a4.12 4.12 0 0 0 1.19-1v.74a1.59 1.59 0 0 0-.61.24 3.89 3.89 0 0 0-1.36 2.42 15.27 15.27 0 0 0-.2 2.29s.87-.44 1.7-.88a3.69 3.69 0 0 0 1.89-2.1 2.52 2.52 0 0 0 .06-.52l1 1.06a6.16 6.16 0 0 0 .77.89c.84.8 1.72 1.61 1.72 1.61a17.37 17.37 0 0 0 .52-2.63l1.62.66a17 17 0 0 0-.71-2.27 5.08 5.08 0 0 0-.54-1 19.21 19.21 0 0 0 2.64.66l1.08.56v-.36a18.38 18.38 0 0 1 5 1.38c8.2 15.8 8.24 23.78 8.2 26 3.65 41.45-2.59 68.2-6.11 89.3q10 .06 20.19.18c-4.06-14-3.83-27.14-3.58-41.89.23-13.54.44-28.15 1-41.69 0-.44-.1-9.78 1.88-16.83 1.6-1.58 3.25-3.11 5-4.54 3.12-2.56 6.77-4.45 9.84-7a20 20 0 0 0 4.95-7.15l.13.16L269 227a15.24 15.24 0 0 0 .51-1.86 5.56 5.56 0 0 0 1.95 1.35l.44.18v.11l.12-.06 1.36.55s-.12-.51-.31-1.13l.7-.39a5 5 0 0 0 1.05-.77v.18a17.82 17.82 0 0 0-.16 2.56s1-.51 1.87-1a5.18 5.18 0 0 0 1.29-1 4.61 4.61 0 0 0 1 1.81l1.14 1.31a13.48 13.48 0 0 0 .33-2v-.35l1-.52a3.63 3.63 0 0 0 1.89-2.1 1.88 1.88 0 0 0-.44-1.94 2.07 2.07 0 0 0-1.59.22 3.81 3.81 0 0 0-1.33 2.33s0-.09-.07-.12a1.79 1.79 0 0 0-1.05-.7 2.08 2.08 0 0 0-.38-1.26l.9-.47a3.64 3.64 0 0 0 1.88-2.1 2.17 2.17 0 0 0 0-.25 5.1 5.1 0 0 0 .56.23l1.19.4a4.53 4.53 0 0 0 .72 1.54 16 16 0 0 0 1.51 1.72s.29-.92.54-1.83a3.62 3.62 0 0 0-.21-2.81 1.88 1.88 0 0 0-1.71-1 2.36 2.36 0 0 0-.75.77c-.05-.12-.11-.23-.16-.35a5.27 5.27 0 0 0-1.83-2.09 5.51 5.51 0 0 0 1.48-.73 4.23 4.23 0 0 0 .38.51l1.14 1.31a13.48 13.48 0 0 0 .33-2 4.56 4.56 0 0 0-.1-1.31c.09-.36.18-.81.26-1.27a5.65 5.65 0 0 0 .8.48l.66.3a4.1 4.1 0 0 0-1.07 2.17 15.18 15.18 0 0 0-.2 2.28s.86-.43 1.69-.87a4.62 4.62 0 0 0 1.23-.95 5.21 5.21 0 0 0 .91 1.53 1.93 1.93 0 0 0-.44.2 3.93 3.93 0 0 0-1.35 2.42 14.84 14.84 0 0 0-.2 2.17 1.58 1.58 0 0 0-.61.25 3.86 3.86 0 0 0-1.37 2.35 16 16 0 0 0-.19 2.28s.86-.43 1.69-.87a3.68 3.68 0 0 0 1.89-2.11 1.88 1.88 0 0 0-.44-1.94 2.43 2.43 0 0 0-.68-.06l1.4-.73.38-.23a3 3 0 0 0-.38 1.33 4.49 4.49 0 0 0 1.55 3.07c.85.8 1.73 1.6 1.73 1.6a18.39 18.39 0 0 0 .52-2.68 4.61 4.61 0 0 0-.81-3.24 2.57 2.57 0 0 0-1.75-.81 2.67 2.67 0 0 0 .64-1.14 2 2 0 0 0 .05-.33l.55.51a17 17 0 0 0 .52-2.68 5 5 0 0 0-.49-2.75l1.51.35a19.86 19.86 0 0 0-1.22-2.33 5.48 5.48 0 0 0-2.37-2.15 2.18 2.18 0 0 0 0-.25 2.82 2.82 0 0 0 .61-.83 4 4 0 0 0 2.14 1.4l.48.14.49.46a2.61 2.61 0 0 0-.32.26 1.47 1.47 0 0 0 .57 1.62 3.44 3.44 0 0 0 2.59.5l.9-.13a5.51 5.51 0 0 0 1.9 1.66L300 216a18.21 18.21 0 0 0-.2-2.73 4.67 4.67 0 0 0-1.64-2.91 1.71 1.71 0 0 0-.53-.25c0-.13 0-.27-.07-.39a3 3 0 0 0-1.19-1.9 1.66 1.66 0 0 0-.85-.25 2.5 2.5 0 0 0-.65-.85 1.92 1.92 0 0 0-1.38-.32 1.42 1.42 0 0 0-.16.14l-.28-.14a3.3 3.3 0 0 0-.44-.75 2.62 2.62 0 0 0-1.75-.81 3.06 3.06 0 0 0 .49-.72 3.93 3.93 0 0 0 1.27 1.16l1.43.81v-.6a5.78 5.78 0 0 0 1.35 1c1 .55 2.08 1.1 2.08 1.1a16.84 16.84 0 0 0-.2-2.73 5.78 5.78 0 0 0-.42-1.35 4.39 4.39 0 0 0 .89-.05c.9-.12 1.83-.27 1.83-.27a11.87 11.87 0 0 0-1.26-1.53 3.43 3.43 0 0 0-2.3-1 2.32 2.32 0 0 0-1.43.69 1 1 0 0 0-.06.23 3.21 3.21 0 0 0-.85.06 1.76 1.76 0 0 0-.57.92l-.18-.17a1.23 1.23 0 0 0-.43-.21V202c0-.27.08-.55.1-.81a5 5 0 0 0-.49-2.74l1.51.34a20.75 20.75 0 0 0-1.22-2.33 5.81 5.81 0 0 0-2.14-2.05l1.17-.1a2.36 2.36 0 0 0 0 .37 3.2 3.2 0 0 0 1.52 1.93l1.44.88a.75.75 0 0 1 0-.11 4.11 4.11 0 0 0 2.16.23l.9-.13a5.51 5.51 0 0 0 1.9 1.66c1 .55 2.09 1.09 2.09 1.09a18 18 0 0 0-.2-2.72 4.63 4.63 0 0 0-1.64-2.92 2 2 0 0 0-.53-.25c0-.13 0-.26-.07-.39a3 3 0 0 0-1.19-1.9 2.11 2.11 0 0 0-1.41-.22 1.07 1.07 0 0 0-.26.3 4 4 0 0 0-1.92-1.62 1.57 1.57 0 0 0-.73-.07c0-.16.07-.32.1-.49a4.43 4.43 0 0 0 1.82-2c.37-1.23-.41-1.58-.41-1.58a3.25 3.25 0 0 0-1.25.23l.3-.18a7.8 7.8 0 0 0 .82-.63 6.34 6.34 0 0 0 .88.58l1.88 1a2.79 2.79 0 0 0-.37.26 1.44 1.44 0 0 0 .46 1.63 3.41 3.41 0 0 0 2.52.66l1.58-.13a2.62 2.62 0 0 0 0 .37 3.22 3.22 0 0 0 1.52 1.93l1.44.87a12.4 12.4 0 0 0 0-2 3.28 3.28 0 0 0-1-2.15 1.94 1.94 0 0 0-1.39-.32 1.35 1.35 0 0 0-.52.89 10.26 10.26 0 0 0-.93-1.25 3.35 3.35 0 0 0-2.2-1.13 1.66 1.66 0 0 0-.88.21 17.61 17.61 0 0 0-.17-2.28 4.88 4.88 0 0 0 1.67.88l.79.22a3.63 3.63 0 0 0 1.38 1.34l1.43.81a10.48 10.48 0 0 0 0-1.76 3.05 3.05 0 0 0-1.05-1.95 2.07 2.07 0 0 0-1.37-.3.89.89 0 0 0-.28.27 4.55 4.55 0 0 0-1.1-1.28l.85-.13a11.43 11.43 0 0 0-1.27-1.53 3.38 3.38 0 0 0-2.3-1 2.32 2.32 0 0 0-1.43.69 1.45 1.45 0 0 0 0 .23 3.55 3.55 0 0 0-.86.05 2.13 2.13 0 0 0-.6 2.12 4.19 4.19 0 0 0-.55.82 12.26 12.26 0 0 0-.06-1.92c0-.07 0-.14-.05-.21.07-.33.13-.69.17-1l.47.13s-.18-.5-.44-1.1a4.88 4.88 0 0 0-.5-2l1.51.35a21.69 21.69 0 0 0-1.23-2.33 5.36 5.36 0 0 0-2.4-2.16 1.51 1.51 0 0 0-.71-.1 4.5 4.5 0 0 0-.31-1.71l.32.36s0-.13.07-.33l1.08.56v-.21a2.89 2.89 0 0 0 .15.31 3.93 3.93 0 0 0 2.17 1.45l1.32.39a2.65 2.65 0 0 0-.66.47 1.47 1.47 0 0 0 .57 1.63 3.47 3.47 0 0 0 2.59.49l.9-.13a5.42 5.42 0 0 0 1.9 1.66c1 .55 2.08 1.09 2.08 1.09a18 18 0 0 0-.2-2.72 4.63 4.63 0 0 0-1.64-2.92 1.72 1.72 0 0 0-.53-.25 2.63 2.63 0 0 0-.06-.39 3 3 0 0 0-1.19-1.9 2.12 2.12 0 0 0-1.41-.22 1.19 1.19 0 0 0-.27.3 4.11 4.11 0 0 0-1.91-1.63 1.75 1.75 0 0 0-.93 0 2.78 2.78 0 0 0 .62-1c.37-1.23-.41-1.58-.41-1.58a3.21 3.21 0 0 0-1.24.23l.29-.19a4.67 4.67 0 0 0 2-2.23 1.36 1.36 0 0 0-.22-1.36 10.14 10.14 0 0 0-.15-1.35 4.6 4.6 0 0 0-1.64-2.91 2 2 0 0 0-.53-.26c0-.13 0-.26-.06-.38a3.09 3.09 0 0 0-1.19-1.91 2 2 0 0 0-1.18-.24 1.88 1.88 0 0 0-.91-.22 3.83 3.83 0 0 0-1.5-1.08 1.81 1.81 0 0 0-1.15 0 2.94 2.94 0 0 0-1.3-.42 1.68 1.68 0 0 0-.72.14c0-.07-.07-.14-.1-.2a2.2 2.2 0 0 0-1.34-.93 1.18 1.18 0 0 0-.22.11 2.79 2.79 0 0 0-.37-.83 1.23 1.23 0 0 0-.33-.35 2.54 2.54 0 0 0 .42-.79c.32-1.24-.47-1.56-.47-1.56a2.94 2.94 0 0 0-1.69.55 4.13 4.13 0 0 0-1.08 1.38c.23-1.36-.56-1.74-.56-1.74a2.9 2.9 0 0 0-1.44.38 11.23 11.23 0 0 0-.06-2 3.86 3.86 0 0 0-.48-1.41l1.08.3a16.2 16.2 0 0 0-.94-2.13 4.77 4.77 0 0 0-2.12-2.06 2.2 2.2 0 0 0-1.64 0s-.54.67.2 1.91a3 3 0 0 0 .83.85 1.57 1.57 0 0 0-.4 1.18 3.54 3.54 0 0 0-1.61-.53 2.77 2.77 0 0 0-1.72.7 1 1 0 0 0-.06.17 5.59 5.59 0 0 0-1.56-2 1.79 1.79 0 0 0-1.68-.21 1.57 1.57 0 0 0-.21.53 1.86 1.86 0 0 0-1.06 0 1.73 1.73 0 0 0 .06-1.72 1.93 1.93 0 0 0-1.47-.21 1.5 1.5 0 0 0-.22.11 10.41 10.41 0 0 0-.43-1.26 5.84 5.84 0 0 0-.28-.56l.59-.42a7 7 0 0 0 1.21-1.11 2.18 2.18 0 0 0 .22 1.45 4.62 4.62 0 0 0 2.33 2c.85.36 1.72.7 1.85.76l.2.28c.6.8 1.23 1.61 1.23 1.61a16.48 16.48 0 0 0 .53-2.27 4.8 4.8 0 0 0-.46-2.93 2.2 2.2 0 0 0-1.34-.93s-.83.2-1 1.65a4.63 4.63 0 0 0-1.71-1.94 2.13 2.13 0 0 0-1.47-.17 2.72 2.72 0 0 0 .42-.95c.3-1.45-.55-1.85-.55-1.85a2.84 2.84 0 0 0-1.76.62 5 5 0 0 0-1.43 2.77v.14a3 3 0 0 0-.47-.32 2.18 2.18 0 0 0-1.63-.13 1.42 1.42 0 0 0-.22 1.27c-.11-.24-.23-.48-.36-.71a4.77 4.77 0 0 0-2.12-2.06 2.17 2.17 0 0 0-1.63.05s-.55.67.2 1.91a2.87 2.87 0 0 0 .82.85 1.71 1.71 0 0 0-.11.14 1.56 1.56 0 0 0-.6.28 2.42 2.42 0 0 0-.46.41 2.79 2.79 0 0 0-.84-.17 2.72 2.72 0 0 0-1.72.69 1 1 0 0 0-.06.17 5.43 5.43 0 0 0-1.56-2.05 1.78 1.78 0 0 0-1.68-.2s-.63.78 0 2.55c0 .1.09.19.13.29a5.45 5.45 0 0 0 .09 2.25 1.21 1.21 0 0 0 .05.18 4.63 4.63 0 0 0-.9-.95 1.78 1.78 0 0 0-1.09-.32 2.18 2.18 0 0 0-.89.07l-.13-.14a5 5 0 0 0-1.7-1.7l.93-.19a3.38 3.38 0 0 0 2.21-1.38 1.76 1.76 0 0 0 .1-1.84 1.93 1.93 0 0 0-1.47-.21l-.22.11a11 11 0 0 0-.43-1.26 4.87 4.87 0 0 0-.28-.56l.59-.42a7 7 0 0 0 1.21-1.11 2.18 2.18 0 0 0 .22 1.45 4.6 4.6 0 0 0 2.34 1.95c.84.36 1.71.7 1.84.76l.2.28c.6.8 1.23 1.61 1.23 1.61a16.48 16.48 0 0 0 .53-2.27 4.75 4.75 0 0 0-.46-2.92 2.15 2.15 0 0 0-1.33-.94s-.84.2-1 1.65a4.59 4.59 0 0 0-1.72-1.94 2.15 2.15 0 0 0-1.47-.18 3 3 0 0 0 .43-1c.29-1.45-.56-1.84-.56-1.84a2.76 2.76 0 0 0-1.75.61 4.83 4.83 0 0 0-1.43 2.77 3 3 0 0 0-.47-.32 2.18 2.18 0 0 0-1.63-.13l-.07.09a3.89 3.89 0 0 0-1-.66 2.2 2.2 0 0 0-1.64 0s-.54.67.2 1.92a2 2 0 0 0-1.52.32 2.61 2.61 0 0 0-.45.39 11.87 11.87 0 0 0 .31-1.47 4.76 4.76 0 0 0-.46-2.92 2.16 2.16 0 0 0-1.34-.94s-.83.21-1 1.65a4.57 4.57 0 0 0-1.71-1.94 2.15 2.15 0 0 0-1.47-.18 2.64 2.64 0 0 0 .42-.95c.3-1.45-.55-1.84-.55-1.84a2.84 2.84 0 0 0-1.76.62 4.85 4.85 0 0 0-1.42 2.76.13.13 0 0 0 0 .06 2.54 2.54 0 0 0-.47-.33 2.18 2.18 0 0 0-1.63-.13s-.61.6 0 1.92a4.58 4.58 0 0 0 2.33 2l.86.35a4.19 4.19 0 0 0-.83 1.14 14.68 14.68 0 0 0-.76 2l1.73-.35a3.3 3.3 0 0 0 2.2-1.38 1.75 1.75 0 0 0 .11-1.84 1.93 1.93 0 0 0-1.47-.21l-.22.11a11.74 11.74 0 0 0-.43-1.26c-.09-.2-.18-.38-.28-.56l.59-.41a7.06 7.06 0 0 0 1.21-1.12 2.18 2.18 0 0 0 .22 1.45 4.58 4.58 0 0 0 2.33 2l1.85.75.2.28c.39.53.8 1 1 1.35a5.09 5.09 0 0 0-.48.9 1.51 1.51 0 0 0-.06.18 6.58 6.58 0 0 0-1-1.56 1.26 1.26 0 0 0-.59-1 2.87 2.87 0 0 0-1.08.21 1.7 1.7 0 0 0-.55.12.46.46 0 0 0-.08.13 2.09 2.09 0 0 0-1.19 1.07 4.25 4.25 0 0 0-.29 1.85 3 3 0 0 0-.46-.32 2.18 2.18 0 0 0-1.63-.13 1 1 0 0 0-.22.42 3.2 3.2 0 0 0-1.3-.36 2.18 2.18 0 0 0-1.11.28c0-.09.07-.18.1-.28a2.43 2.43 0 0 0-.47-2.55 3 3 0 0 0-.84-.12 1.38 1.38 0 0 0-.13-1.52 3.05 3.05 0 0 0-1.41-.11v-.06c.44-1.38-.23-1.91-.23-1.91a2.09 2.09 0 0 0-1.58.31 4.72 4.72 0 0 0-1.59 2.48 18 18 0 0 0-.41 2.07 1.51 1.51 0 0 0-.48.31 6.44 6.44 0 0 0-1.6 3.26 24.56 24.56 0 0 0-.36 2.47 2.16 2.16 0 0 0-1.61.12 3.44 3.44 0 0 0-.77.63 2.23 2.23 0 0 0-1.25-.08 2.75 2.75 0 0 0 .43-1c0-.18.05-.34.06-.49a3.91 3.91 0 0 0 2.75-1.09 1.74 1.74 0 0 0 .31-2 2.72 2.72 0 0 0-1.76-.5 3.51 3.51 0 0 0-1.52.71 1.51 1.51 0 0 0-.52-1.13 3 3 0 0 0 .72-.94c.59-1.32 0-1.92 0-1.92a2.11 2.11 0 0 0-1.6.13 4.72 4.72 0 0 0-1.85 2.28 16.73 16.73 0 0 0-.67 2.14 2.49 2.49 0 0 0-.74.21 1.16 1.16 0 0 0-.21 1 2.56 2.56 0 0 0-.69-.86 2.06 2.06 0 0 0-1.37-.3 1.2 1.2 0 0 0-.28.28 4 4 0 0 0-1.77-1.72 1.84 1.84 0 0 0-1.38 0s-.46.56.17 1.62a3 3 0 0 0 1.16 1 2.07 2.07 0 0 0-.69 0 1.52 1.52 0 0 0-.52 1.58 2.34 2.34 0 0 0 .53 1.07c0 .11 0 .22-.06.35v.05a3.86 3.86 0 0 0-1.45-1.66 1.81 1.81 0 0 0-1.24-.15 2.26 2.26 0 0 0 .36-.8c.25-1.23-.47-1.56-.47-1.56a2.34 2.34 0 0 0-1.48.52 4.13 4.13 0 0 0-1.21 2.34 12.09 12.09 0 0 0-.12 2s.8-.55 1.57-1.1a6 6 0 0 0 1-.94 1.89 1.89 0 0 0 .18 1.22 3.88 3.88 0 0 0 2 1.65l.54.23a5.11 5.11 0 0 0-.86 1.27l-.16-.31a4.11 4.11 0 0 0-1.74-1.78 1.49 1.49 0 0 0-1.26.06.91.91 0 0 0-.11.39 1.15 1.15 0 0 0-.23-.08 2.15 2.15 0 0 0-1.2 1.08 4.76 4.76 0 0 0-.14 2.9 4.51 4.51 0 0 0-2.12 2l-.12-.13a2.92 2.92 0 0 0 .71-.93c.59-1.32 0-1.92 0-1.92a2.11 2.11 0 0 0-1.61.12 4.8 4.8 0 0 0-1.85 2.29 9.67 9.67 0 0 0-.36 1 .9.9 0 0 0-.34-.34 2.36 2.36 0 0 0-1.48.52 3.63 3.63 0 0 0-.8 1.12l-.05-.07a1.94 1.94 0 0 0-1.45.11 4.35 4.35 0 0 0-1.65 2 1 1 0 0 0-.32-.25 2.18 2.18 0 0 0-1.39.47 3.16 3.16 0 0 0-.87 2.16 5.83 5.83 0 0 0 0 .72 4.7 4.7 0 0 0-1.47.76 15.27 15.27 0 0 0-1.68 1.61s1 .27 1.95.5a4.7 4.7 0 0 0 1.64.12l-.26.39a2.2 2.2 0 0 0-.8.18 1.69 1.69 0 0 0-.08 1.78.31.31 0 0 0 .05.1 1.09 1.09 0 0 1-.05.17 1.83 1.83 0 0 0-.47 0 3.51 3.51 0 0 0-2.15 1.44 11.39 11.39 0 0 0-1 1.78l1.92-.05a5.18 5.18 0 0 0 .94-.13 3 3 0 0 0-.13.57 3.35 3.35 0 0 0-.51 1.7 5.72 5.72 0 0 0 0 .72 4.85 4.85 0 0 0-1.47.77 15.27 15.27 0 0 0-1.68 1.61l1.95.5a3.77 3.77 0 0 0 2.91-.31 1.82 1.82 0 0 0 .94-1.78 2.73 2.73 0 0 0-.54-.55l.36-.47a4.57 4.57 0 0 0 .68-1.36l.44-.18a5.1 5.1 0 0 0 1.58-1h.81a6.65 6.65 0 0 0-.92 1.59 21.2 21.2 0 0 0-.82 2.59s1-.42 2-.85a5.06 5.06 0 0 0 .46-.24c-.41.71-.78 1.44-1.13 2.2a12.21 12.21 0 0 0-1.18 1.29h.58c-.3.7-.6 1.41-.89 2.14a1.86 1.86 0 0 0-.48-.1 3.15 3.15 0 0 0-1 .12c0-.18-.11-.36-.17-.53a3.48 3.48 0 0 0-1.58-1.92 1.86 1.86 0 0 0-1.43.06 1.66 1.66 0 0 0-.08 1.78 1.51 1.51 0 0 0 .15.28 2.11 2.11 0 0 0-.62 0 3.51 3.51 0 0 0-2.15 1.44 5.16 5.16 0 0 0-.39.6 1.83 1.83 0 0 0-.6.74 3.88 3.88 0 0 0-.29 1.62 1.27 1.27 0 0 0-.37.25 3.11 3.11 0 0 0-.87 2.15 5.83 5.83 0 0 0 0 .72 5.33 5.33 0 0 0-.68.27 1.23 1.23 0 0 0-.19-.2 3 3 0 0 0 .71-.93c.59-1.33 0-1.93 0-1.93a2.13 2.13 0 0 0-1.61.13 4.72 4.72 0 0 0-1.85 2.28A15.78 15.78 0 0 0 174 188l1-.41a4.29 4.29 0 0 0-.31 1.45 12.2 12.2 0 0 0 .17 2.07l1.13-.83h1.46a2 2 0 0 0 .15 1.25 1.59 1.59 0 0 0 .15.29 1.77 1.77 0 0 0-.59-.03Zm116.27 17.4.26.08a4.54 4.54 0 0 0 .83.7l1.24.75a2.24 2.24 0 0 0-.18.77 3.39 3.39 0 0 0-2.16-.9h-.24c.09-.39.19-.9.25-1.4Zm-105.9 3.46a1.46 1.46 0 0 0-.28.14l.69-.55.26.6a2.4 2.4 0 0 0-.67-.19Zm5.53 1a14.3 14.3 0 0 0-.16 1.94l-.42.41a5.31 5.31 0 0 0-.92-1.49l.49-.27a5.38 5.38 0 0 0 1-.77Zm2.54 7.2Zm2-9.7a1.14 1.14 0 0 0-.33-.25 2.38 2.38 0 0 0-.68.1l-.08-.13.89-.46.22-.12h.49a4.89 4.89 0 0 0-.51.87Zm.23-17.17a2.44 2.44 0 0 0 .07.75 4.73 4.73 0 0 0-.26.9 3.14 3.14 0 0 0-.37.18h-.06l-.24-.13c-.07-.23-.16-.47-.26-.72a3.5 3.5 0 0 0 .95-1Zm-.12-3.64.39-.24a4.56 4.56 0 0 0-.18.75q-.1-.26-.21-.5Zm-.43-23.34-.47.29H196.52a4.4 4.4 0 0 0 .13-1.27l.84-.25.25-.08a6.41 6.41 0 0 0-.45 1.28s0 .03-.01.03Zm3.31 32.48a5.75 5.75 0 0 0 .35-.93 4.8 4.8 0 0 0 .23.8 1.62 1.62 0 0 0-.47.09Zm.81 11.52h-.1a1.4 1.4 0 0 0-.38-.56h-.08a1.54 1.54 0 0 0-.05-1.2c.06-.07.17-.22.3-.41a4.83 4.83 0 0 0 .63 1.33 4.18 4.18 0 0 0-.32.84Zm.26-14.08v-.08l.1.07Zm1.75 9.23c.29.53.58 1 .73 1.29-.11.09-.21.19-.31.29-.06-.13-.12-.26-.19-.38a2.22 2.22 0 0 0-1.22-1 5.18 5.18 0 0 0 .24-1.51l.18-.18a2.66 2.66 0 0 0 .1.38c-.07.72-.08 1.35-.08 1.35Zm.63-10.7.19.06v.09Zm2.17 25.38a5.36 5.36 0 0 0 1.08-.47 5.43 5.43 0 0 0 .18 1.66 4.92 4.92 0 0 0-1.26-1.23Zm-.4-4.07a1 1 0 0 1-.07.15l-.15-.05a6.09 6.09 0 0 0-2.26.7 4.13 4.13 0 0 0-.46.31v-.2a8.49 8.49 0 0 0 1.14-.8l.47-.1a3 3 0 0 0 1.8-1.06l.95-.77a6.86 6.86 0 0 0 .68-.65 2 2 0 0 0 0 .24 4.7 4.7 0 0 0-2.1 2.19Zm-.23-10.76a3.9 3.9 0 0 0-.44.76 4.24 4.24 0 0 0-.61.36 9.1 9.1 0 0 0 .66-1.25 3.53 3.53 0 0 0 .26-1 3.14 3.14 0 0 0 .32-.31l.12.3a3.31 3.31 0 0 0-.31 1.14Zm.21 7.62a1.16 1.16 0 0 0 0 .18h-.08Zm-1.13-4.62h.06v.13Zm.06 1.68a2 2 0 0 0 0 .23h-.09a2.6 2.6 0 0 0 .09-.25Zm1.87-14.68.29.12v.4a6.21 6.21 0 0 0-.29.63h-.11v-.07a2.58 2.58 0 0 0 .11-1.08Zm2 11.93h-.19s.05-.11.08-.16l.12.11Zm0-21.61a3.78 3.78 0 0 0-1.28 2.09 1.64 1.64 0 0 0-.48-.07 9.3 9.3 0 0 0-.07-1.46c0-.15-.06-.3-.09-.44a2.78 2.78 0 0 0 .26-.69s0-.06 0-.1l.41.12s-.09-.25-.23-.6a5.27 5.27 0 0 0 .57-.49l.1.12.13.13a2.15 2.15 0 0 0 .55.87s0 0 .05 0 .08.2.14.32l.06.08Zm-1.77-14.05c-.06-.23-.12-.48-.19-.72a6.32 6.32 0 0 0 .6.56 2.66 2.66 0 0 0-.41.2Zm1.23 8.33.17-.13.12.27h-.06l-.12-.13Zm1.72-9-.07-.08h-.1.4Zm.31 8.27a1.88 1.88 0 0 0 .16-.23c0 .35-.06.65-.08.85a1.11 1.11 0 0 0-.27-.11h-.19l.18-.27Zm.79 19.44a2.72 2.72 0 0 0-.63.46 1.31 1.31 0 0 0 .12 1.07l-.08.26h.22a2.24 2.24 0 0 0 .3.33 1 1 0 0 0 .13.09.1.1 0 0 1 0 .05 3.15 3.15 0 0 0-.58-.09 1.91 1.91 0 0 0-.64.09c0-.11-.11-.21-.17-.32a1.76 1.76 0 0 0-.09-.74 2.35 2.35 0 0 0-.46-1.45l.25-.24.38.13Zm-.15 13.29Zm-1.34-8.29a2.93 2.93 0 0 0 .56.28c0 .31 0 .61-.05.86l-.1.07a3.55 3.55 0 0 0-.45.53c0-.19 0-.38.07-.56a5.75 5.75 0 0 0-.03-1.15Zm0 18.16v-.09l.38.25a1.53 1.53 0 0 0-.43-.13Zm.37-4a2.56 2.56 0 0 0-.41-.44c0-.1-.07-.19-.11-.28a2.78 2.78 0 0 0 .48-.49 5.79 5.79 0 0 0 .84.5l.11.05a2.23 2.23 0 0 0-.31.56 1.29 1.29 0 0 0-.07.4 1.22 1.22 0 0 1-.19-.12 2.79 2.79 0 0 0-.39-.13Zm1 5.07s0-.07-.05-.1a2.7 2.7 0 0 0-.58-.62l1 .68a2.12 2.12 0 0 0-.41.09Zm.49-25.42q-.12.32-.21.63a10.15 10.15 0 0 0-.54-1.18l-.07-.11h.15a5 5 0 0 0 .47.22l.36.15c-.1.17-.15.23-.2.34Zm-.44-3.91Zm.17-5.75a3.09 3.09 0 0 0-.49.05 2.27 2.27 0 0 0 .18-.47 2.42 2.42 0 0 0 0-.25 4.53 4.53 0 0 0 .57.23l1.18.4v.19h-.08a1.25 1.25 0 0 0 0 1.26 2.36 2.36 0 0 0-.56.17 3.1 3.1 0 0 0-.42 0v-.07c.37-1.14-.42-1.46-.42-1.46Zm1.44-2Zm-.7 30.24.55.29c-.06.17-.12.34-.17.52l-.15-.1c-.11-.15-.19-.41-.27-.63ZM212 227l.23-.11v.11Zm.72-22a2.11 2.11 0 0 0-1.09.45l-.07-.11.17-.1a5.49 5.49 0 0 0 .54-.35h.53a1.09 1.09 0 0 0-.06.11Zm0-8.76a1.09 1.09 0 0 0 .14-.23 2 2 0 0 0 .19-.81 2.33 2.33 0 0 0 .4.27c0 .15-.05.27-.06.35l-.18.09c-.16.09-.32.21-.49.33Zm10.77 28.55c-1-.2-1.94-.45-2.86-.73v-.05a5.21 5.21 0 0 0 .89 0l1.84-.28a12.38 12.38 0 0 0-1.27-1.53 3.43 3.43 0 0 0-2.3-1 2.32 2.32 0 0 0-1.43.69 1.45 1.45 0 0 0 0 .23 3.26 3.26 0 0 0-.86.06 1.53 1.53 0 0 0-.43.57l-.73-.33c0-.23.07-.45.09-.67a5 5 0 0 0-.49-2.74l1.51.34a21.69 21.69 0 0 0-1.23-2.33 6.35 6.35 0 0 0-.73-.94 1.41 1.41 0 0 0-.39-.81 2.21 2.21 0 0 0-.69-.11 3.66 3.66 0 0 0-.59-.3 1.82 1.82 0 0 0-.71-.1 4.5 4.5 0 0 0-.12-1.13l.57.17s-.14-.38-.34-.85c.06-.31.14-.74.19-1.16l.23-.17.65.33v-.76a4 4 0 0 0 .33.77 2 2 0 0 0-.38.12s-.47.57.16 1.64a4 4 0 0 0 2.17 1.46l1.32.38a2.54 2.54 0 0 0-.66.48 1.45 1.45 0 0 0 .57 1.62 3.47 3.47 0 0 0 2.59.49l.9-.13a5.09 5.09 0 0 0 1 1.07c0 .06.05.13.08.19a3.35 3.35 0 0 0-2.21-.93 2.32 2.32 0 0 0-1.43.69 1.47 1.47 0 0 0 .57 1.62 3.48 3.48 0 0 0 2.59.49l1.19-.17c.56 1.36 1.12 2.73 1.64 4.09-.36-.13-.72-.21-1.16-.29Zm-9.69-22.54Zm5.36 11.83.81.18a2.88 2.88 0 0 0 .26.35c0 .48-.06.83-.06.83l.4-.19.27.59a2.14 2.14 0 0 0-.07.38 3.34 3.34 0 0 0-2.16-.89 1.3 1.3 0 0 0-.49.1 13.8 13.8 0 0 0-.72-1.63 4.67 4.67 0 0 0-.83-1.08c0-.15 0-.3.05-.44a2.84 2.84 0 0 0 .27.51 2.7 2.7 0 0 0 .72.66v.05a4.75 4.75 0 0 0 1.62.57Zm-.57-13.22.22-.15a.18.18 0 0 0 .05.07l-.11.09a.62.62 0 0 0-.06.18Zm.75 2a.15.15 0 0 0 .06 0h-.06Zm.16-14.9a.69.69 0 0 0 .05-.13v-.33l.21.19Zm4.34-23.26a2.18 2.18 0 0 0-.08.49 1.89 1.89 0 0 0-.4.08 3.15 3.15 0 0 0-.65.34.55.55 0 0 1-.9-.46 2.64 2.64 0 0 0 .17-.55 1.72 1.72 0 0 0-.19-1.17 1.59 1.59 0 0 0 .12-.27l.5-.28.29.15a22.26 22.26 0 0 0-.26 2.35Zm1 10.57a4.26 4.26 0 0 0-.51.84c-.11-.26-.24-.53-.37-.77s-.22-.34-.33-.5c.09-.12.2-.28.32-.47a2.3 2.3 0 0 0 .4.57 1.75 1.75 0 0 0 .53.3Zm-.09-6.91Zm0 10.32v.1a2.49 2.49 0 0 0-.46.38h-.18l-.29-.1Zm-1.68 24.85v1.15l.41-.29a4.73 4.73 0 0 0-.38 1.17.5.5 0 0 1 0 .12h-.07a12.39 12.39 0 0 0-1.17-2.1h.48Zm-.06-34.09.11.06-.11.16a1.61 1.61 0 0 0 .04-.25Zm-.06 4.1a2.53 2.53 0 0 0-.49 0c0-.2.09-.48.14-.77.05.08.12.16.18.24a.65.65 0 0 0 0 .13c.12.09.16.23.22.37Zm-1.1 7.73a1.45 1.45 0 0 0-.33.59s0 .1 0 .17a1.25 1.25 0 0 0-.05.29c-.11-.23-.25-.5-.4-.79a2.73 2.73 0 0 0 .4-.62 2.94 2.94 0 0 0 .42.33Zm-.21 4 .81-.07c.07.13.14.24.19.34s0 .07 0 .11a3 3 0 0 0-.86.05 1.93 1.93 0 0 0-.64 1.4 2 2 0 0 0-.79.2c.1-.43.23-1 .31-1.57v-.09c.06-.12.12-.24.17-.37a5.08 5.08 0 0 0 .85.02Zm.36 9.76-.18.33a4.53 4.53 0 0 0-.56-.69 3.73 3.73 0 0 0 .51-.45 3.2 3.2 0 0 0 .23.83Zm-1.11 3-.12.45.5-.21.27.14a2.43 2.43 0 0 0 .14.28 2.1 2.1 0 0 0 .33.42 4.08 4.08 0 0 0-.61 1.18l-.06.07a2.83 2.83 0 0 0-.66-.15 3.93 3.93 0 0 0-.47-2 2.21 2.21 0 0 0-.07-.57v-.3a5.22 5.22 0 0 0 .79.66Zm-4.45-3.7a5.66 5.66 0 0 0 .59-.44 4.62 4.62 0 0 0-.18.87.34.34 0 0 1 0 .1c-.09-.19-.23-.37-.37-.55Zm1.11-8.24a2.67 2.67 0 0 0-.46.44 4.54 4.54 0 0 0-1.09.93 7.61 7.61 0 0 0-.79-1.51 4.88 4.88 0 0 0 1.21-.8 6.92 6.92 0 0 0 .84.57l.49.26a1.55 1.55 0 0 0-.16.09Zm-2.07 11.11.39.21-.32.17c-.05-.1-.1-.2-.16-.3Zm-.28-7.24.45.24a1.12 1.12 0 0 0-.16.19 3.58 3.58 0 0 0-.25-.45Zm1-14.35a1.9 1.9 0 0 0-.54-.17 1 1 0 0 0-.41.34 1.77 1.77 0 0 0-.24-.17 3.29 3.29 0 0 0 .34-.42l.74.24a.76.76 0 0 0 .11.14Zm8.48 17.4a3.47 3.47 0 0 0 .3-.5l.14.15a3.1 3.1 0 0 0-.06.39Zm1.08 18.06a1 1 0 0 0-.08.14 2.18 2.18 0 0 0-.2.64l-.37-1h.06c.19 0 .38-.1.57-.16l.06.08c0 .08-.02.23-.03.28Zm-.55-15.51.08-.16a.84.84 0 0 0 .06-.14l.63-.44a4.69 4.69 0 0 0 1.79 1l1.32.38a2.72 2.72 0 0 0-.67.48 1.3 1.3 0 0 0 0 .64 1.86 1.86 0 0 0-.47.3 2.72 2.72 0 0 0-.32.35c-.07-.11-.13-.22-.2-.32a5.58 5.58 0 0 0-2.21-2.11Zm.14-48.06.32-.18-.09.19Zm5.06 47.23.81.17.16.23v.06c-.06.37-.09.78-.12 1.15a3 3 0 0 0-1.38-.37 2 2 0 0 0-.5.1 12.59 12.59 0 0 0-.71-1.62 4.9 4.9 0 0 0-.84-1.1l.16-.2a3 3 0 0 0 .17.28 3.93 3.93 0 0 0 2.26 1.28Zm-1.33-4.07a4.24 4.24 0 0 0 0-.61l.75-.23v1l-.06.21c-.06.26-.11.53-.15.8-.06-.17-.13-.35-.2-.52a4.94 4.94 0 0 0-.33-.67Zm5.25 22a2.57 2.57 0 0 0-.79-1.35 3.06 3.06 0 0 0 .35-.37 3.23 3.23 0 0 0 .54 0l.95-.07c0 .1-.12.19-.17.3a12.7 12.7 0 0 0-.63 1.91l.86-.31v.36l-.12.07a4.32 4.32 0 0 0-1.45 2.74 11.69 11.69 0 0 0-.14 1.44 2.22 2.22 0 0 0-1 .05.56.56 0 0 0-.1-.15.69.69 0 0 0-.11-.13l1-1.42a4 4 0 0 0 .82-3.12Zm4-17 .5-.27c0 .06.09.1.13.16a5 5 0 0 0-1.26 1.47 2.21 2.21 0 0 0-.39.14 1.08 1.08 0 0 0-.21.47l-.25.1a2.22 2.22 0 0 0-.44-.47 1.54 1.54 0 0 0-.73-.28 3.7 3.7 0 0 0-1.05-1.24 2.25 2.25 0 0 0-.21-.12 3.05 3.05 0 0 0 .64-1.07l1.16-.31a3.68 3.68 0 0 0 .38.31 4.14 4.14 0 0 0-.29.55 7.52 7.52 0 0 0-.43 1.78s1.26-.61 2.46-1.22Zm5.77-42.26a3 3 0 0 0-.39.34 2.5 2.5 0 0 0-.05-.47Zm-.33-2.3a4.39 4.39 0 0 0 .63 0l.92-.07a4.65 4.65 0 0 0-.1.58 2.25 2.25 0 0 0-.63 0 1.2 1.2 0 0 0-.28.28 4.47 4.47 0 0 0-.53-.79Zm.13 37.25a3.28 3.28 0 0 0 .2.31 2.39 2.39 0 0 0-.85.4 6.29 6.29 0 0 0 .66-.71Zm-.73-11.35a1.4 1.4 0 0 0-.27-.35 2.33 2.33 0 0 0-1.08 0l-.17-.55.07-.08.42.44s.09-.26.2-.62c.06.1.11.2.18.31a3.22 3.22 0 0 0 .76.76Zm-1.52 4.31a5.19 5.19 0 0 0-.25.47 2.52 2.52 0 0 0-.22-.55Zm-.36 10.09a8.43 8.43 0 0 0 .69.65 14.58 14.58 0 0 0 0 1.59l1.07-.86c.64.35 1.25.68 1.55.83l-.19.2a2.18 2.18 0 0 0-1.3.07 3.13 3.13 0 0 0-.91.62 1.09 1.09 0 0 0-.35-.16h-.3a8.23 8.23 0 0 0-.46-.94c.52-1.13-.49-1.31-.49-1.31l-.47.07-.11-.11.47-.24a7.68 7.68 0 0 0 .8-.37Zm3.18 22.29-.18.38h.2v.1a2.48 2.48 0 0 0-.92 0l.07-.1c.51-1.13-.5-1.32-.5-1.32l-.43.07.15-.25.17-.09c.24-.12.48-.25.71-.39l.75.25a11.82 11.82 0 0 0-.02 1.39Zm-.24-5.59a3.84 3.84 0 0 0-.25 1.05s0 .09 0 .14a4.4 4.4 0 0 0-.88-.78l.28-.25c.27 0 .56-.06.85-.12Zm-.67-8.86.16-.14a.79.79 0 0 0-.15.12Zm.87-.93.06-.08Zm-2.21 17.2a2.1 2.1 0 0 0-.13.26 5.41 5.41 0 0 0-.72.52l-.21-.14c.37-.15.73-.38 1.06-.6Zm-3-3.59a1.43 1.43 0 0 0-.26.15.66.66 0 0 0 0-.14 4.13 4.13 0 0 0-.23-.92 2.8 2.8 0 0 0 .61-1.2 3.23 3.23 0 0 0 .06-.66l.58.07a5.48 5.48 0 0 0 .34.46l.64.74a3.48 3.48 0 0 0-1 1.42 1.34 1.34 0 0 0-.7.16Zm.64 6.31a1.74 1.74 0 0 0-.48.14 5 5 0 0 0 .4-.4Zm.73-21c-.14.43-.26.84-.34 1.16a3.25 3.25 0 0 0-.48-.69c.32-.06.59-.22.86-.39Zm-.18 2.77c-.52 0-1-.12-1.56-.18a1.09 1.09 0 0 1 .05-.17l.39.11Zm-4.12 12.72.54-.3a4.45 4.45 0 0 0 .7.55l.4.24a2.29 2.29 0 0 0-.16.31 3 3 0 0 0-.14.36 1.78 1.78 0 0 0-.56-1.08 2.81 2.81 0 0 0-.74 0Zm.53 4.51v.18a2.7 2.7 0 0 0 0 .28.79.79 0 0 0-.23-.19Zm-.61-8.62a1.69 1.69 0 0 1 0 .23 4.91 4.91 0 0 0-.46 1.06c-.2-.27-.43-.58-.66-.84l-.21-.19a2 2 0 0 0 .13-.46v-.32l.12-.07.25.09a2.31 2.31 0 0 0 .28.19Zm-4-15.71a2.49 2.49 0 0 0-.84 0 1 1 0 0 0-.27.29l-.1-.12.54-.26a7.39 7.39 0 0 0 .71-.4l.35.07a2.26 2.26 0 0 0-.31.52Zm-.58 23.09c.09.22.18.42.26.6a2.91 2.91 0 0 0-.68-.19 1.35 1.35 0 0 0-.27.15Zm-.16-16.99v-.19h.29l-.09.25Zm-1.29 3a2.64 2.64 0 0 0-.56.41 2.8 2.8 0 0 0-.49-.31l.63-.51a3.61 3.61 0 0 0 .42.41Zm-1.86 0a1.62 1.62 0 0 0-.45.15 1 1 0 0 0-.11.59h-.2l.06-.43a6.14 6.14 0 0 0 0-1.14l.57-.4.18-.14v.05a8.73 8.73 0 0 0-.05 1.37Zm-1 15q-.26-.73-.51-1.5a13 13 0 0 0 .78-1.29 5 5 0 0 0 .59-2.73l.2.09a4.78 4.78 0 0 0 .41 1.17l.09.18c.44.79.91 1.59.91 1.59a11 11 0 0 0 .95-1.7 3.8 3.8 0 0 0 .18-.54h.36a4 4 0 0 0-.15.68 4.37 4.37 0 0 0-.82 2.15v1a1.15 1.15 0 0 0-.29-.45 2 2 0 0 0-1.57.11 3.4 3.4 0 0 0-1.12 1.31ZM240 238.82c-4.12-5.74-8.24-7.91-10.63-15.47-.22-.68-.66-2-1.22-3.73l.13-.06a3.56 3.56 0 0 0 2-1.95 3.28 3.28 0 0 0 .1-.49l.57-.45a1.92 1.92 0 0 0-.7 1.37 3.27 3.27 0 0 0 .84 2.23 4.53 4.53 0 0 0-.27 1.14 12.77 12.77 0 0 0 0 2s.77-.61 1.51-1.22a5.31 5.31 0 0 0 1.36-1.63l.25.18a8.84 8.84 0 0 0 0 1.25 1.67 1.67 0 0 0-.46.55 3.18 3.18 0 0 0-.3 1.06 4.47 4.47 0 0 0-.82 2.15 12.77 12.77 0 0 0 0 2l1.38-1.11c.3.73.61 1.35.61 1.35s.63-.88 1.23-1.75a4 4 0 0 0 .79-3.06 2.31 2.31 0 0 0-1.15-1.59l.16-.13 1.57.64a17.81 17.81 0 0 0-.5-1.73 2.94 2.94 0 0 0 .26-.39c.23-.12 1-.55 1.81-1l.23-.14a4.71 4.71 0 0 0-1.12 2.44 17.76 17.76 0 0 0-.16 2.56s1-.51 1.87-1a4.09 4.09 0 0 0 2-2.34l.54.61a14.15 14.15 0 0 0 .32-2v-.35l.73-.38c-.21.7-.34 1.27-.34 1.27h.16a2.54 2.54 0 0 0 .34 1.22l.06.08-.13.08a3.83 3.83 0 0 0-1.36 2.41c-.09.52-.14 1.11-.17 1.56a2.07 2.07 0 0 0-1.22.35 2.15 2.15 0 0 0-.35.33 1.92 1.92 0 0 0-.61-1.56 2.34 2.34 0 0 0-1.77.29 4.34 4.34 0 0 0-1.45 2.74 17.76 17.76 0 0 0-.16 2.56s1-.51 1.88-1a5.33 5.33 0 0 0 1-.78v.18a16.45 16.45 0 0 0-.16 2.57s.95-.51 1.87-1a5.13 5.13 0 0 0 1.29-1 4.54 4.54 0 0 0 1 1.81c.4.48.83.95 1 1.18-1.81 4.33-3.42 7.64-3.81 7.15Zm4.12-7.87a8.83 8.83 0 0 0 .16-1.18v-.35l.63-.33c-.24.64-.5 1.26-.76 1.91Zm2.55-6.1a2 2 0 0 0-1.54.23 3.77 3.77 0 0 0-1.34 2.33 1.34 1.34 0 0 0-.06-.12 1.86 1.86 0 0 0-1.06-.7 2.09 2.09 0 0 0-.37-1.26l.89-.47a3.66 3.66 0 0 0 1.89-2.1 2.24 2.24 0 0 0 0-.24l.57.23 1.18.39a4.93 4.93 0 0 0 .24.67c-.07.35-.23.69-.37 1.04Zm.8-15.07.23-.12a2.24 2.24 0 0 0 .19 1 1.59 1.59 0 0 0 .15.29 1.75 1.75 0 0 0-.46 0 1.93 1.93 0 0 0-.08-1.17Zm-.11-24.47a2.15 2.15 0 0 0-.9.17 2.26 2.26 0 0 0-.2-.28 1.92 1.92 0 0 0-.43-.38l.47-.09a3.6 3.6 0 0 0 .9-.32 5.19 5.19 0 0 0 .36.46c-.04.13-.11.29-.17.44Zm-.71 23.85v.19a2.24 2.24 0 0 0-1.1.57l-.17.19.11-.08c.17-.15.35-.31.52-.49Zm-.76-14.32c.15.11.31.21.46.3a3.71 3.71 0 0 0-.48.55l-.31-.06a3.61 3.61 0 0 0-.22-.48 2.09 2.09 0 0 0-.05-.46Zm-.41-11.49a11.08 11.08 0 0 0-.46 1.12l-.25-.05a1.35 1.35 0 0 0-.08-.24 2.45 2.45 0 0 0 .46-.93 2 2 0 0 0 0-.33l.35.32Zm-.64 30.75h.7c.11.15.23.31.36.46a1.61 1.61 0 0 0-.29.09 2.62 2.62 0 0 0-.53.3 1.46 1.46 0 0 0-.42-.68Zm4 4.45a13.22 13.22 0 0 0-.16 1.36c-.12.3-.25.6-.37.92a1.41 1.41 0 0 0-.6-.1 2.36 2.36 0 0 0-.75.77l-.17-.34a5.09 5.09 0 0 0-1.83-2.1 5.79 5.79 0 0 0 1.38-.65c-.06.68-.07 1.26-.07 1.26l.89-.45.81.93s.18-.75.28-1.51a5.94 5.94 0 0 0 .7-.54c.05.14-.04.29-.07.45Zm.52-23.27-.07-.07a1.91 1.91 0 0 0-.42-.06 1 1 0 0 0-.21-.53l.14-.08c0 .05.06.11.1.16a3.29 3.29 0 0 0 .5.56Zm17.3 19.18a5 5 0 0 0-.25-.46l.35.18a2.31 2.31 0 0 0-.06.28Zm.68-2.12c-.05.3-.08.62-.11.93a3.72 3.72 0 0 0-.3.52c-.06-.29-.15-.67-.26-1.07a4.72 4.72 0 0 0 .71-.56 1.16 1.16 0 0 0 0 .18Zm.58-16.2a.76.76 0 0 0-.2.06 3 3 0 0 0-1.37 1.48 2.4 2.4 0 0 0-.37-1.54c.3-.2.67-.47 1-.73l.14-.1.92.51v-1.15l.72.3a4.31 4.31 0 0 0-.83 1.14Zm-4.62-7c-.06.37-.09.74-.11 1.07v.1a1.89 1.89 0 0 0-1 .14 1 1 0 0 0-.12.28h-.06a2.15 2.15 0 0 0-.35.33 2.7 2.7 0 0 0-.08-.68 1.49 1.49 0 0 0 .05-.62 2.53 2.53 0 0 0-1-.8 4.56 4.56 0 0 0 .83-.87l.71-.34a6 6 0 0 0 1.77-1.3 1.55 1.55 0 0 0 .09.39 4.36 4.36 0 0 0-1.26 1c-.51.61-1 1.25-1 1.25s.78.06 1.57.01Zm-4.25 30.24a4.7 4.7 0 0 0 1.63 0l1.35-.2.06.19c0 .15.09.29.13.43a2.72 2.72 0 0 0-.81 0 2.61 2.61 0 0 0-.88.32 3.39 3.39 0 0 0-1.65-.69Zm-.32-12.73a.76.76 0 0 0 0-.15l.22.19a1.24 1.24 0 0 0 0 .16Zm2.45-33.91v.05l.23.22a2 2 0 0 0-.47.16 1 1 0 0 0-.15.27c-.1.09-.2.2-.3.31a2.32 2.32 0 0 0-.45-.48 1.7 1.7 0 0 0-.55-.25 13.43 13.43 0 0 0 .81-1.3 5.7 5.7 0 0 0 .59.78l-.17.21Zm1.46 3 .28.07v.64l.26-.19a4.41 4.41 0 0 0 .23.56 2.8 2.8 0 0 0-.37.65 3 3 0 0 0-.12.32 2.34 2.34 0 0 0-.56.4 1.21 1.21 0 0 0-.21-.78 1.79 1.79 0 0 0-1.11-.14 1.94 1.94 0 0 0 0-.35h.09l.09.05v-.1a4.36 4.36 0 0 0 1.46-1.13Zm-.4-16.83v.09Zm-.39 8a1.78 1.78 0 0 0-.48.55 1.45 1.45 0 0 0-.18-.17 2.44 2.44 0 0 0 .38-.8v-.27a5.12 5.12 0 0 0 .26.67Zm-1.4 34.53c-.06-.17-.12-.33-.19-.48a2.43 2.43 0 0 0 .14-.2l.7-.33c0 .07.09.14.13.22a7.28 7.28 0 0 0-.74.78Zm1.38 16.41a2.83 2.83 0 0 0 0 .41c-.19-.22-.4-.46-.61-.66a4.41 4.41 0 0 0-.49-.39s0-.08 0-.12a6.2 6.2 0 0 0 1.14.75ZM260 184.76a4.86 4.86 0 0 0-.4.79 5.47 5.47 0 0 0 0-.68Zm4-28.33c-.06-.12-.12-.24-.19-.36a4.42 4.42 0 0 0-1.23-1.43.86.86 0 0 0-.29-.26h-.13a6.62 6.62 0 0 0 .78-.56 1.86 1.86 0 0 0 .4 1.26 3.09 3.09 0 0 0 1.31 1 2.47 2.47 0 0 0-.65.35Zm.93 33.79a4.07 4.07 0 0 0 1.72-1.64l.1-.09h.71a4.67 4.67 0 0 0-.61 1.39c0 .12-.06.26-.09.39a4.23 4.23 0 0 0-2 1 4.39 4.39 0 0 0-.65-.59Zm.59-15.73.21-.25a2.91 2.91 0 0 0 0 .31.49.49 0 0 0 0 .12 1.3 1.3 0 0 0-.1-.15Zm2.74 5.37a.49.49 0 0 0 0-.12l.2.14Zm1.19 6.06.1.17h-.09a2.12 2.12 0 0 0-.39.31 1.59 1.59 0 0 0-.35.1.76.76 0 0 0-.1.18l-.06-.13.73-.52Zm0-5.47h.07Zm-.13 17.35-.1.14-.24.16a1.71 1.71 0 0 0 .13-.23c0-.06 0-.12.07-.18h.1a.65.65 0 0 0-.03.11Zm.27 11.51a1.79 1.79 0 0 0-.69.29 3.39 3.39 0 0 0-.35.32 2.08 2.08 0 0 0-.42-1.36 2.68 2.68 0 0 0 .54-.38l.73.29.17.24.18.23a2.32 2.32 0 0 0-.23.37Zm.07-46.8a8.72 8.72 0 0 0-.59-.69l.21-.06.29.17.3.16c-.14.14-.22.28-.28.42Zm.75 23.68v.14a2.19 2.19 0 0 0-.47-.2c.14-.22.35-.57.55-.94-.14.54-.15.97-.15 1Zm-.19-31.72a1.17 1.17 0 0 0-.2 1 2.6 2.6 0 0 0-.69-.86 1.55 1.55 0 0 0-.64-.27v-.05h.3l1.58-.14a1.94 1.94 0 0 0 0 .24 3.24 3.24 0 0 0-.42.08ZM279 218a3.89 3.89 0 0 0-1.36 2.42 11.41 11.41 0 0 0-.17 1.56 2.08 2.08 0 0 0-1.23.35c-.11.09-.23.2-.35.32a1.92 1.92 0 0 0-.6-1.55 2.29 2.29 0 0 0-1.77.29 4.22 4.22 0 0 0-1.4 2.49 5.78 5.78 0 0 0-.56-.69 4.05 4.05 0 0 0 .75-3 2.34 2.34 0 0 0-1.15-1.59l.25-.21a4.26 4.26 0 0 0 1.59-2.32 1.56 1.56 0 0 0-.3-1.34c0-.25.07-.52.09-.76s0-.24 0-.35l1-.52a4.23 4.23 0 0 0 .4-.24l.39.41a7.65 7.65 0 0 0-.26 1.29l2.45-1.23.15-.08v.44a4.66 4.66 0 0 0-.9 1.33c0 .07-.05.14-.07.2a1.87 1.87 0 0 0-.87.33 4.35 4.35 0 0 0-1.45 2.74 16.45 16.45 0 0 0-.16 2.57s.95-.51 1.87-1a4.08 4.08 0 0 0 2.05-2.4 2.65 2.65 0 0 0-.08-1.48l.73-.37a10.22 10.22 0 0 0 1.06-.6c-.29.87-.47 1.69-.47 1.69h.15a2.57 2.57 0 0 0 .35 1.22s0 .05 0 .08Zm-7.82-60.29v-.06a3 3 0 0 0 .14-.75 4.5 4.5 0 0 0 .77.23h.18c0 .22-.05.41-.06.55a3.07 3.07 0 0 0-1 .07Zm.63 30.72h-.1c-.09-.16-.18-.32-.27-.46l.11-.1c.12.22.21.42.29.6Zm.84 21a2.44 2.44 0 0 0 .06-.26l.12-.06a2.59 2.59 0 0 0-.19.66h-.13a1.43 1.43 0 0 0 .17-.31Zm-.13-51.63.69-.39a4.34 4.34 0 0 0-.52.53l-.09-.11Zm2.73 3.16c-.14.41-.23.72-.23.72l1.06-.21a3.91 3.91 0 0 0-.6.45 1.09 1.09 0 0 0-.35-.16 7.35 7.35 0 0 0-1.09.22 3.4 3.4 0 0 0 .11-.79 2 2 0 0 0 .25-.37c.52-1.13-.5-1.31-.5-1.31h-.26l-.08-.09h-.14l.37-.19a8.69 8.69 0 0 0 1.64-1 4.62 4.62 0 0 0-.18.87 13.11 13.11 0 0 0 .03 1.9Zm1.64 18.79a2.91 2.91 0 0 0-.41.39 1.65 1.65 0 0 0-.41-.63 2.56 2.56 0 0 0-.32-.07l-.17-.15a4.47 4.47 0 0 0 1.37-.57h.07l.92.27a2 2 0 0 0-.1.21 1.18 1.18 0 0 0-.07.2 1.74 1.74 0 0 0-.85.38Zm.42 25.22a.17.17 0 0 0 0 .05Zm-.09.23-.09-.06ZM277 204l.29-.19c0 .32-.05.62-.05.84-.11-.18-.19-.4-.24-.65Zm-.79 1a2.84 2.84 0 0 0-.39.34 3 3 0 0 0-.4.12l-.05-.09c-.06-.12-.13-.24-.2-.36l.32-.17.31.08Zm-1.24-.34v-.05Zm3.12-10a2 2 0 0 0 .12-.67h.14a1.52 1.52 0 0 0 0 .53 1.67 1.67 0 0 0-.15.24Zm.3-16.38h.06Zm.41 28 .23-.14v.14a1.76 1.76 0 0 0-.27-.01Zm-.1-33.13a4.12 4.12 0 0 0-.4-.56.9.9 0 0 0-.38-.48 1.44 1.44 0 0 0-.32-.5l.42-.39a3.55 3.55 0 0 0 .44.21 11.67 11.67 0 0 0 .77.94 4.82 4.82 0 0 0-.57.77Zm2 39.11a1 1 0 0 0-.34-.16h-.11a2.41 2.41 0 0 0 .15-.33l.36.42Zm-.3-30.46a3.42 3.42 0 0 0 .46 0 2.14 2.14 0 0 0 .1.22 1.32 1.32 0 0 0-.28 0h-.16Zm1 11.94c-.06.22-.11.46-.15.69a5.14 5.14 0 0 0-.53-.44s0-.06 0-.09a1.61 1.61 0 0 0 0-.22 7.34 7.34 0 0 0 .89-.55 4.44 4.44 0 0 0-.2.6Zm.23-5.13a1.34 1.34 0 0 0-.06-.12 1.5 1.5 0 0 0-.2-.23 5 5 0 0 0-.24-.62h.42a3.5 3.5 0 0 0 .28.27 4.91 4.91 0 0 0-.19.69Zm2.62 6.68a2.49 2.49 0 0 0 .64.61 5.17 5.17 0 0 0 1.83 1.44l.66.3a3.73 3.73 0 0 0-.35.41 2.73 2.73 0 0 0-1.06-.21 1.36 1.36 0 0 0-.36 0 3.72 3.72 0 0 0-.32-.77A1.89 1.89 0 0 0 285 196a2.67 2.67 0 0 0-.52-.19 4.09 4.09 0 0 0-1.27-1.19l.27-.22a4.61 4.61 0 0 0 .4-.37 1.88 1.88 0 0 0 .38 1.25Zm2.8-4.26 1 .32.17.21a1.93 1.93 0 0 0-.59-.21 1.2 1.2 0 0 0-.65.82 1.21 1.21 0 0 0-.08.58 3.67 3.67 0 0 0 .76 2 1 1 0 0 0-.19.18 5 5 0 0 0-1.58-1.92 1.45 1.45 0 0 0-.89-.22 2 2 0 0 0 .17-.37 1.52 1.52 0 0 0 0-1.19 1 1 0 0 0-.55-.78h-.2a6 6 0 0 0 .65-.58 5.14 5.14 0 0 0 1.28.74v.74Zm-.52-9.88a2.74 2.74 0 0 0-.44.32 1 1 0 0 0-.06.17c-.06-.13-.13-.25-.19-.37s.18-.79.25-1.4c.2.24.37.47.49.63s-.03.44-.04.64Zm1.82 22.53c0 .08-.05.15-.07.23a2.9 2.9 0 0 0-1.12-.24 2.25 2.25 0 0 0-.08-.24 3.46 3.46 0 0 0 1.28.24Zm-4.89 2.14Zm.46-6.22a5 5 0 0 0 .37.5l.81.93h-.06a3.46 3.46 0 0 0-.45.42 17.33 17.33 0 0 0-.92-1.75Zm.2 2.56a4.48 4.48 0 0 0-.36-.56l.65.14c-.09.13-.19.26-.28.41Zm1.7 8.55a4.91 4.91 0 0 0-1.53-1.83h-.05a2.11 2.11 0 0 0 .37-.79 1.13 1.13 0 0 0 0-.18 4.79 4.79 0 0 0 .71.8 3.42 3.42 0 0 0 .51 1.56c.02.12.01.28 0 .43Zm-.25-9.94.06-.31a3.5 3.5 0 0 0 .49.14 2.64 2.64 0 0 0-.54.16Zm2.43 12.51a1.36 1.36 0 0 0-.27-.36 2.41 2.41 0 0 0-1.08 0c-.14-.48-.33-1-.53-1.54l.4-.21.45.52a3.82 3.82 0 0 0 .39.74 3.22 3.22 0 0 0 .76.76Zm.22-6.73.09-.05h.09v.05Zm.29-22.2c0 .16-.06.33-.08.5a2.38 2.38 0 0 0-.78.36l-.09.08a4.63 4.63 0 0 0 0-1.34 4.3 4.3 0 0 0 1 .19c.02.07 0 .14-.01.21Zm-.89-6.83h.11l-.11.12Zm.93 3.39a4.34 4.34 0 0 0 .84-.71 3.05 3.05 0 0 0 .13.32 1.75 1.75 0 0 0-.13.77 3.9 3.9 0 0 0-.8-.38Zm4.61 11.39a3.92 3.92 0 0 0 2.27 1.29l.81.18a3.35 3.35 0 0 0 1.06 1 2 2 0 0 0-.26.94 3.36 3.36 0 0 0-2.17-.89 1.58 1.58 0 0 0-.49.09 12.88 12.88 0 0 0-.72-1.62 4.51 4.51 0 0 0-1.08-1.31 8.2 8.2 0 0 0-.07-1 2.44 2.44 0 0 0-.06-.26l.31.28a1.84 1.84 0 0 0 .44 1.3Zm-1.35-8.3 1.09.62a4.35 4.35 0 0 0-.25.63 2.87 2.87 0 0 0-1.36-.47 3.32 3.32 0 0 0 .52-.78Zm-1.91 1.82.14-.08.39-.23a.47.47 0 0 0-.05.1 2.29 2.29 0 0 0-.52.43 2.07 2.07 0 0 0 .04-.2Zm.66 5.7h-.07a1.18 1.18 0 0 0-.11 1 3.32 3.32 0 0 0-.84-.61c.06-.33.11-.7.14-1v-.31h.12a3.08 3.08 0 0 0 .76.94Zm-.77-14.38H289.64a2.28 2.28 0 0 0-1.07 0c-.15-.47-.33-1-.54-1.54a6.66 6.66 0 0 0-1.21-2 4.25 4.25 0 0 0-.83-2.47 2 2 0 0 0-.65-.51l.53-.3a6.66 6.66 0 0 0 .91.42l.67.22.42.38a1.6 1.6 0 0 0-.64 1.41 3.9 3.9 0 0 0 1 2.4l.61.71a3.52 3.52 0 0 0 .39.73 2.54 2.54 0 0 0 .56.57Zm.95-6.5c0-.11 0-.23-.05-.33a7.25 7.25 0 0 0-.19-.74 6.81 6.81 0 0 0 .29-.62h.44v.15l.32-.2h.21a4.52 4.52 0 0 0-1.02 1.76Zm2.45.32a1.79 1.79 0 0 0 .39 1.26 4 4 0 0 0 2.27 1.29l.81.18a3.57 3.57 0 0 0 1.06 1 2.15 2.15 0 0 0-.26.94 3.34 3.34 0 0 0-2.16-.89 1.52 1.52 0 0 0-.49.09 14.54 14.54 0 0 0-.72-1.62 4.12 4.12 0 0 0-1.69-1.71 6 6 0 0 0 .79-.5Zm-2.3-8a5.32 5.32 0 0 0 1.89 1.67l.12.05a2.4 2.4 0 0 0-.24.22c-.18-.21-.37-.43-.57-.63a3.77 3.77 0 0 0-1.6-.9v-.36Zm-2.56 1a1.48 1.48 0 0 0 .58 1.59 3.43 3.43 0 0 0 2.59.5h.32a4.31 4.31 0 0 0-.34.89 3.29 3.29 0 0 0-2.06-.81 1.75 1.75 0 0 0-.87.26.78.78 0 0 0-.25-.21 3 3 0 0 0-1.72.48 3.8 3.8 0 0 0-.65.63c0-.2.06-.41.08-.62a5.14 5.14 0 0 0-.45-2.66 4.82 4.82 0 0 0 .75.1l.72.17s0-.07-.08-.16h.16Zm-3.65-4.63a4.94 4.94 0 0 0 1.49.74l.93.27a1.5 1.5 0 0 0-.16.48l-.11.11a.91.91 0 0 0-.05.19 3.45 3.45 0 0 0-1.46-.46 2.44 2.44 0 0 0-.48 0 6.96 6.96 0 0 0-.42-.37c.07-.15.17-.51.26-.91Zm.24 10.16c-.06.28-.09.56-.12.79a1.66 1.66 0 0 0-.14-.13l-.21-.13a2.37 2.37 0 0 0 .36-.66Zm-.34 5.93.07.07v.19a2.44 2.44 0 0 0-.48 0l-.12-.17Zm.13 8.86a4.77 4.77 0 0 0 .73 1.54 11.32 11.32 0 0 0 .91 1.1 5.14 5.14 0 0 0-.2.55 2.74 2.74 0 0 0-.09.39c-.13-.09-.24-.15-.36-.22a1 1 0 0 0-.45-.5h-.18a1.64 1.64 0 0 0-.51-1.15 2.31 2.31 0 0 0-.72-.06 7.28 7.28 0 0 0-.77-1.34l1.14-.18s-.11-.17-.29-.4Zm-1.82-25.48.19.28.59.77a1.59 1.59 0 0 0-.27-.12 1.82 1.82 0 0 0-.71-.1 4.72 4.72 0 0 0-.09-1Zm-.5 6.87a5.18 5.18 0 0 0 .9 1.53 2.07 2.07 0 0 0-.43.2 3.14 3.14 0 0 0-.77.86c-.12-.5-.27-1.08-.45-1.59 0-.1-.07-.19-.1-.28a4.84 4.84 0 0 0 .85-.67Zm-1 5.52a4.11 4.11 0 0 0-.42.21h-.27c0-.13-.1-.28-.15-.44l.06-.33a4.12 4.12 0 0 0 .78.49Zm-1.56-12.59a3.34 3.34 0 0 0 .4-.25 2.92 2.92 0 0 0 .2.89h-.1a1.63 1.63 0 0 0-.13.26 5.25 5.25 0 0 0-.68-.76Zm-1.36-3.08.09.07a5.2 5.2 0 0 0 .18.5c0 .09.1.17.15.26a5.12 5.12 0 0 0-.44.84 1.46 1.46 0 0 0-.24-.93 3.28 3.28 0 0 0 .22-.69Zm-.47 5.34a4.9 4.9 0 0 0 2.11 1.87l.66.31a3.55 3.55 0 0 0-.65.92 4.23 4.23 0 0 0-.41-.36 1.72 1.72 0 0 0-.7-.29 3.24 3.24 0 0 0-.33-.79 1.77 1.77 0 0 0-.32-1.09 3 3 0 0 0-1-.28 3.07 3.07 0 0 0 .64-.24Zm-.44 4.48a1.83 1.83 0 0 0 .13.16l.33.38a.64.64 0 0 0 0 .07 4.41 4.41 0 0 0 1 1.48 1.45 1.45 0 0 0-.44 0 2.36 2.36 0 0 0-.75.77c-.06-.12-.11-.24-.17-.35a5.18 5.18 0 0 0-1.82-2.09 6.41 6.41 0 0 0 .78-.32h.31Zm-12.8-16.87a2.71 2.71 0 0 0 .06-.38 2.83 2.83 0 0 0 .75-.56 1.91 1.91 0 0 0 .32 1.18 3.76 3.76 0 0 0 1.88 1.34 6.33 6.33 0 0 0 1.88 1.62l1.95 1s0-.1-.06-.26l.1.06a11.65 11.65 0 0 0 0-1.62 4.83 4.83 0 0 0 2.4.38l2.11-.18c.53.31 1 .57 1.17.66a2.48 2.48 0 0 0-.26.19 4.34 4.34 0 0 0-.93 1.26l-.1.08a.67.67 0 0 0-.16-.11 3 3 0 0 0-1.71.48 3.87 3.87 0 0 0-.82.84 3 3 0 0 0-.85-1.35 1.94 1.94 0 0 0-1.39-.32 1.35 1.35 0 0 0-.52.89 9.55 9.55 0 0 0-.93-1.25 3.35 3.35 0 0 0-2.2-1.13 1.38 1.38 0 0 0-.29 0 3.41 3.41 0 0 0-.57-.53 1.81 1.81 0 0 0-1.68-.2 1.85 1.85 0 0 0-.1.18l-.21-.25a4.66 4.66 0 0 0-.77-.66 3.35 3.35 0 0 0 .89-1.31Zm-.81 4.11.76-.06a1.66 1.66 0 0 0 .06.21 2.34 2.34 0 0 0-.28.1.84.84 0 0 0-.15.4 1.67 1.67 0 0 0-.86 0 3.38 3.38 0 0 0 .43-.6Zm-3.24-8.37-.15-.39a5.16 5.16 0 0 0 2.11 1.57l.86.36a3.91 3.91 0 0 0-.83 1.14c-.13.26-.25.54-.36.81a4.48 4.48 0 0 0-1 1.59 3.49 3.49 0 0 0-.47.2l.1-.28a2.46 2.46 0 0 0-.47-2.56l-.3-.07a10.83 10.83 0 0 0-.07-1.25 4.11 4.11 0 0 0-.48-1.41Zm-1.26 11.38a15.17 15.17 0 0 0 .33-2 5.71 5.71 0 0 0 0-.59 5 5 0 0 0 .8-1.47 2.53 2.53 0 0 0 .22.26 2 2 0 0 0 .31.25 4.31 4.31 0 0 0-.66 1.38 12 12 0 0 0-.29 2l.24-.13a4.15 4.15 0 0 0-.73 1.63 1.46 1.46 0 0 0-.21 0 4.69 4.69 0 0 0-.18-1.3v-.27Zm-.11 31.14a3.63 3.63 0 0 0-.36 1.43v.72a3.94 3.94 0 0 0-.83.36 2.08 2.08 0 0 0-.07-.75.14.14 0 0 0 0-.06 5.62 5.62 0 0 0 1.22-1.65Zm.81 39.56a18.11 18.11 0 0 0-.2-2.72 6 6 0 0 0-.37-1.22c.27 0 .55 0 .82-.06a4.93 4.93 0 0 0 1.23-.3l.61-.09a1 1 0 0 0-.1-.15 2.37 2.37 0 0 0 .56-.39.32.32 0 0 0 .08-.09 17.2 17.2 0 0 0 1.29-2 5 5 0 0 0 .56-3 2.22 2.22 0 0 0-1-1.36l.1-.09a4.81 4.81 0 0 0 1.08.86 3.71 3.71 0 0 0 .53 2.29l.84 1.5-.44 1.07a1.62 1.62 0 0 0-.88.22 3.81 3.81 0 0 0-1.49 2.29 16.38 16.38 0 0 0-.34 2.23l.74-.32c-1.73 3.51-3.68 5.17-7 7.41a83.55 83.55 0 0 0-7.17 5.63c1.5-5.27 2.76-9.58 2.9-9.89s.18-.4.27-.61a5.54 5.54 0 0 0 1 1.27c.84.8 1.72 1.6 1.72 1.6a17.79 17.79 0 0 0 .53-2.68 4.61 4.61 0 0 0-.82-3.24 2.17 2.17 0 0 0-1-.64c.14-.41.27-.8.39-1.19l.06.06s.21-.74.37-1.59a21.75 21.75 0 0 0 .48-2.65 14.69 14.69 0 0 0 1.49-.55 1 1 0 0 1 0 .14 17 17 0 0 0-.31 2.34h-.39a2.19 2.19 0 0 0-.58 2.3 4.45 4.45 0 0 0 2.3 2.56c.99.57 2.1 1.11 2.1 1.11ZM255.22 174c0-.3 0-.71-.06-1.15l.31.22a.21.21 0 0 0 0 .07l.06.09a2 2 0 0 0 0 .34Zm.38 13.2v.16l-.15.13a1.53 1.53 0 0 0 .15-.28Zm-.18 4.83c.09.22.18.42.26.6a2.4 2.4 0 0 0-.67-.19h-.1Zm.47 16a4.34 4.34 0 0 0-1.8.76 9.49 9.49 0 0 0-.94.78v-.26a1.93 1.93 0 0 1 0-.24 3.71 3.71 0 0 0 1.68-2 2.62 2.62 0 0 0 0-1.32l.56-.11a4.24 4.24 0 0 0 .88.11c0 .07-.08.13-.12.21l-.06.14a3.05 3.05 0 0 0-.67.48 1.41 1.41 0 0 0 .47 1.5Zm-2.72-4.47a4.53 4.53 0 0 0 .81-.27 6 6 0 0 0-.33.67c-.11.28-.22.59-.32.88a3.66 3.66 0 0 0-.61-1.22Zm-.6-13.66a2.55 2.55 0 0 0-.61-.37h-.11a3.49 3.49 0 0 0 .65-.62h.08v.05l.28.48c-.09.17-.19.33-.29.56Zm.49 20.29h.14l-.14.06Zm1.13-14.39h.23c-.06.1-.13.19-.19.3a2.36 2.36 0 0 0-.04-.25Zm0-16.58.43.23-.17.17Zm2 19.44h-.1a1.87 1.87 0 0 0-.75 0l-.31.07-.16-.08.39-.27.36-.29.07.08a2 2 0 0 0 .63.35v.05l.24.07a1.34 1.34 0 0 0 .11.14 3.25 3.25 0 0 0-.52-.07Zm-1.43-24.07h.12a3.52 3.52 0 0 0-.7.35 4.18 4.18 0 0 0-.53-.62 1.82 1.82 0 0 0 0-.72l1.36.71c-.21.22-.29.33-.29.33Zm-.85 6.64a5.3 5.3 0 0 0 .14 1.78c.07.27.15.55.24.81l-.19.09c-.1-.41-.22-.85-.36-1.25a6.32 6.32 0 0 0-1.15-2.1 4.49 4.49 0 0 0 1.28.72Zm-1.17 3.06.59.32a4.62 4.62 0 0 0-.48.86 1.7 1.7 0 0 0-.48.51 1.61 1.61 0 0 0-.52-1.13 3.27 3.27 0 0 0 .63-.78Zm4.06 8Zm.3 28 .1-.05v.06Zm.18-37.55a5.38 5.38 0 0 0 .77-.54 5.35 5.35 0 0 0-.25.74 2.35 2.35 0 0 0-.74.31l-.07-.08a2 2 0 0 0-.35-.08ZM255.83 149l.83-.25.26-.09a4.38 4.38 0 0 0-.23.54 2 2 0 0 0-.43.24 3.24 3.24 0 0 0-.49.44 4.81 4.81 0 0 0 .06-.88Zm-.59-1.51-.09.19h-.24Zm-.21 7.66.59-.26a5.68 5.68 0 0 0 .73-.38h.06a3 3 0 0 0 .53.69 3 3 0 0 0 0 .31 1.47 1.47 0 0 0 0 .21 4.11 4.11 0 0 0-.59.2 2.78 2.78 0 0 0-1.32-.44h-.12a3.35 3.35 0 0 0 .09-.29Zm.06 3.61H255a2.65 2.65 0 0 0-1.55-.25 4.44 4.44 0 0 0-.78-.69l.81-.66a.12.12 0 0 0 0-.05 2 2 0 0 0 .43.62s.05 0 .07.06l-.3.37.93.08a3.36 3.36 0 0 0 .48.56Zm-2.2-4.72.1-.08a5.81 5.81 0 0 0 .75-.74 1.45 1.45 0 0 0 .18.17 2 2 0 0 0-.85.51c-.06.05-.11.12-.17.18s-.01.02-.01 0Zm1.61-7.48c-.1.51-.17 1-.21 1.25-.09-.42-.23-1-.41-1.66a2.31 2.31 0 0 0 .62.45Zm-2.5 1.14c.09-.15.17-.32.25-.48l.19.11 1.44.78h-.07a5.89 5.89 0 0 0-1.33 2.31 4.7 4.7 0 0 0-.44.77.81.81 0 0 0-.16-.1 1.52 1.52 0 0 0-.12-1.11 2.23 2.23 0 0 0-.33-.2l-.09-.28c0-.15-.11-.29-.16-.43Zm.19 7.81a5 5 0 0 0-.18.87v1.07a1.57 1.57 0 0 0-.7-.06.57.57 0 0 0 0-.14 2.49 2.49 0 0 0 .46-.79 1.76 1.76 0 0 0 .38-.85Zm-1.3 22 .41-.28a5.08 5.08 0 0 0 .79.82h-.13a3.72 3.72 0 0 0-1.08-.53Zm0-6.63-.18-.11Zm-.12 20.41a2.87 2.87 0 0 0 .93.9 4.16 4.16 0 0 0-.58.78 3.51 3.51 0 0 0-.49-.33v-1.15Zm-.29-28.61v.15l-.09-.17Zm0 8-.19-.06a1.18 1.18 0 0 0 .1.04Zm-1.86-20.48h-.07a.57.57 0 0 0 0-.13Zm.13 4.25v.34l-.34.2v-.14a1.46 1.46 0 0 0-.27-.64 4.23 4.23 0 0 0 .52.22Zm-.63 3.22a.83.83 0 0 0 0 .15l-.09.07a1.34 1.34 0 0 0-.03-.24Zm-.62 16.81v.09l-.31.12a1.36 1.36 0 0 0 0-.3Zm-.14-20.69h-.1l-.15.06a3 3 0 0 0-.11-.45 1.67 1.67 0 0 0 .27.37Zm.31 23.18a4.27 4.27 0 0 0-.47.93c-.12-.24-.28-.56-.46-.9a4.85 4.85 0 0 0 .84 0Zm-.58 1.32c0 .12-.07.24-.09.36a12.23 12.23 0 0 0-.12 2l1.57-1.1.43-.35a2.2 2.2 0 0 0 .41.5 2.53 2.53 0 0 0 1.31.51s0 .08 0 .13a3.14 3.14 0 0 0-.75-.12 2.38 2.38 0 0 0-1.43.69 1 1 0 0 0-.06.24 3 3 0 0 0-.85 0 1.66 1.66 0 0 0-.51.75 2.76 2.76 0 0 0-.9.73 12.61 12.61 0 0 0 .33-1.91 5 5 0 0 0-.49-2.74Zm-1-15c-.06.08-.12.18-.18.28a1.4 1.4 0 0 0-.14-.28Zm-.42-1.11.06.07c-.1.16-.18.31-.25.45a1.17 1.17 0 0 1 0-.11 6.79 6.79 0 0 0-1.18-1.92 4.47 4.47 0 0 0 .42-.45 4.42 4.42 0 0 0 .85 1.91Zm-1-18.14a12.31 12.31 0 0 0-.06-2.07 3.73 3.73 0 0 0-.48-1.41l.72.2c.23.13.47.25.69.35l.86.35a4.1 4.1 0 0 0-.83 1.14 14.25 14.25 0 0 0-.63 1.57 2.16 2.16 0 0 0-1 .07 4.1 4.1 0 0 0 0-.62Zm-3.66-3.48a2.14 2.14 0 0 0 0-1.52 4.49 4.49 0 0 0 .51.44 1.55 1.55 0 0 0-.41 1.12h-.16Zm.25 7 .2-.1.25.31.15-.55a5.66 5.66 0 0 0 1.17-.95 2.08 2.08 0 0 0 .63 1.27 2.27 2.27 0 0 0 .67.43 3 3 0 0 0 0 .31 3.28 3.28 0 0 0-1.6-.53 2.69 2.69 0 0 0-1.72.69 1 1 0 0 0-.06.18 8 8 0 0 0-.4-.72ZM240 171.74l.52-.41a1.94 1.94 0 0 0-.65 1.33 2.44 2.44 0 0 0 0 .27l-.21-.17a1.91 1.91 0 0 0 .25-.52 3.4 3.4 0 0 0 .09-.5Zm-.52 6.18a2.46 2.46 0 0 0 .16.51 1.59 1.59 0 0 0 .15.29 1.86 1.86 0 0 0-.33 0v-.74c0-.11-.03-.05-.03-.06Zm.27-18c0 .2-.08.4-.11.6a3.38 3.38 0 0 0-.48-.16l-.09-.17c.17-.11.34-.22.5-.34Zm-1.18-14a5.67 5.67 0 0 0 .12-.72l.68.28v.11c-.06.27-.11.55-.16.84a1.58 1.58 0 0 0-.7-.24c-.05-.09-.01-.19.01-.27Zm.17 39.54a15.55 15.55 0 0 0 1.52 1.72s.16-.53.35-1.19a5.23 5.23 0 0 0 .58.29l-.15.08a3.83 3.83 0 0 0-1.35 2.41 12.45 12.45 0 0 0-.19 1.78 3.49 3.49 0 0 0-.54.85s0 .09 0 .13a2 2 0 0 0-.69.1 1 1 0 0 0-.14-.28 2 2 0 0 0-.67-.18 4.92 4.92 0 0 0-.86-.57v-.95l.41-.09a3.39 3.39 0 0 0 2.21-1.39 1.74 1.74 0 0 0 .1-1.83 2.19 2.19 0 0 0-1.07-.28 1.32 1.32 0 0 0-.32-.42 2.33 2.33 0 0 0-.51-.07c-.07-.2-.14-.4-.22-.59a4.18 4.18 0 0 0-.28-.56l.59-.42.25-.19.32.11a4.53 4.53 0 0 0 .61 1.54Zm-.93-11.23h.16c0 .12.08.25.13.38l-.23.22a2.06 2.06 0 0 0-.11-.6Zm.39-5c0-.11-.07-.22-.11-.32l.15.19a.69.69 0 0 0-.09.15Zm-.38-2.78.19-.11c0 .13.07.27.11.4a2 2 0 0 0-.09.33h-.11a.53.53 0 0 0-.13-.13 4.67 4.67 0 0 0-.02-.47Zm0 12.89a3.51 3.51 0 0 0-.77.77l-.18.26a4.23 4.23 0 0 0-.71-.56 5.39 5.39 0 0 0 1.49-.72 2.2 2.2 0 0 0 .09.27Zm-.37-31.42a5.72 5.72 0 0 0 .19.77 3.66 3.66 0 0 0-.82.4l-.57-.13.09-.07.26.13-.06-.27a6.33 6.33 0 0 0 .83-.81Zm-2.56-4.63a5.05 5.05 0 0 0 .39-.81 6.32 6.32 0 0 0 1 .91 3 3 0 0 0 .37.45 5.09 5.09 0 0 0-.73 1 1.7 1.7 0 0 0-.56 0 8.24 8.24 0 0 0-.69-1.09c-.04-.14.05-.29.14-.44Zm.77 21.95v-.06h.12Zm0 7.76a.51.51 0 0 0 0 .13v.32l-.1.07a2 2 0 0 0-.35.32 2.62 2.62 0 0 0-.1-.75h.13Zm-1.15 12.53a5.74 5.74 0 0 0 1.27.8 4 4 0 0 0-.47.77 2.23 2.23 0 0 0-1.23-.22 1 1 0 0 0-.25.24 2.26 2.26 0 0 0-.36-1l.89-.46Zm-.41-9.46v.1Zm-.12 3.65v.17a1.55 1.55 0 0 0-.07-.23Zm-.64-19.87a3.7 3.7 0 0 0 0 .55 1.28 1.28 0 0 0-.43.06 2.31 2.31 0 0 0-.8.52h-.23v-.44c.44-.25.91-.47 1.4-.67Zm.19 3.56-.1.21a3.13 3.13 0 0 0-.33-.31l.24-.06a1.3 1.3 0 0 0 .13.18Zm-1.95 8.59h.47a1.89 1.89 0 0 0 .49.64l.07.05v.07a3.44 3.44 0 0 0-.68.86l-.08.06a1.29 1.29 0 0 0-.21-.81l-.12-.05a3.42 3.42 0 0 0 .06-.82Zm-.27-1.12a3.42 3.42 0 0 0 .62.27 1.61 1.61 0 0 0 0 .26c-.14.16-.25.3-.33.41a1.59 1.59 0 0 0-.07-.38 2.83 2.83 0 0 0-.22-.61Zm-.31-26 .94-.07a4.51 4.51 0 0 0 .18.61 3.76 3.76 0 0 0-.83.49 1.62 1.62 0 0 0-.42-1Zm-.3 20.79.24-.15.14.08a4.56 4.56 0 0 0-.31.42l-.09-.18a.76.76 0 0 1-.08-.11Zm-.42 13.2a3.73 3.73 0 0 0 .34.35 1.4 1.4 0 0 0-.39.19.5.5 0 0 0 0-.13Zm-.44 5.19.07.07v-.14l.49-.27a4.1 4.1 0 0 0 2.06-2.4 3.29 3.29 0 0 0 0-1l1.39.56a2.72 2.72 0 0 0 .3.83l.06.08-.13.07a3.89 3.89 0 0 0-1.36 2.42 13 13 0 0 0-.17 1.56h-.11a3.12 3.12 0 0 0-.56-.33 1.39 1.39 0 0 0-.47-.11 1.46 1.46 0 0 0-.35-1.37 2.12 2.12 0 0 0-1.54.28v-.16Zm-1.26-.17v.85l.81-.44.16.08a4 4 0 0 0-.8.86h-.06l-.26.23a2.72 2.72 0 0 0-1 .45 2.83 2.83 0 0 0-.25.24 4.13 4.13 0 0 0 .34-1.59l.52-.08a11.64 11.64 0 0 0-.84-1.08 2.36 2.36 0 0 0-.35-.52 5.6 5.6 0 0 0 .64.4Zm-1.19-41.05Zm.14 22.69a5.09 5.09 0 0 0-.18.67 5.76 5.76 0 0 0-.18-.59c0-.12-.08-.24-.13-.36l.31-.17a3 3 0 0 0 .18.37Zm-.95-1.45.23-.11h.07l.24.28a8.77 8.77 0 0 0-.09.92 7.8 7.8 0 0 0-.48-1Zm-.25 18.4Zm-.33 5.85c0 .16-.06.33-.09.5l-.09-.15a1.5 1.5 0 0 0-.11-.13l.44-.63c-.06.08-.15.19-.15.33Zm-3.49-48.56-.09.18h-.24Zm-1.1 9.52s.53-.88 1-1.74a4.65 4.65 0 0 0 .68-3 2.34 2.34 0 0 0-.51-1.12 4.18 4.18 0 0 0 .36-.92 4.43 4.43 0 0 0 .13-1.27l.84-.25.25-.08a5.66 5.66 0 0 0-.45 1.28 19.77 19.77 0 0 0-.38 3l2.25-1.05.35-.18a5.2 5.2 0 0 0-.81 1.67 14.51 14.51 0 0 0-.41 2.07 1.67 1.67 0 0 0-.49.31 4.53 4.53 0 0 0-.75 1 9.79 9.79 0 0 0-1.35.85 3 3 0 0 0-.73-.37l-.06-.32Zm-.2 17.67a2.34 2.34 0 0 0 .09.33l-.18.32-.3.66a1.94 1.94 0 0 0-.77.14 3.13 3.13 0 0 0-.91.62 1.09 1.09 0 0 0-.35-.16 5.49 5.49 0 0 0-.64.1 2.17 2.17 0 0 0 0-.67v-.67a1.26 1.26 0 0 0 0-.37 2.38 2.38 0 0 0 .23-.41v-.15l.4-.27a13.55 13.55 0 0 0-.55 1.48l.57-.11v.37l.62-.5.25-.05a3.42 3.42 0 0 0 1.54-.74Zm-2.92-3.28.06-.07v.08h-.06Zm1-17.16 1.18-.82a5.82 5.82 0 0 0 .16 1.39c.09.34.2.69.31 1a2.21 2.21 0 0 0-1.31-.9 1.05 1.05 0 0 0-.34.19 1.8 1.8 0 0 0 .01-.94Zm-.61 2.12a1.3 1.3 0 0 0 0 .21.54.54 0 0 0-.07-.13Zm-.09 11.13 1.42.1a4.57 4.57 0 0 0 .74 0 2.4 2.4 0 0 0-1.3.61 3.75 3.75 0 0 0-.64.94c-.09-.4-.21-.91-.36-1.42Zm-1 1.75 1 .54a1.55 1.55 0 0 0-.07.23 2.24 2.24 0 0 0-1.11-.46Zm-.55-.29h.08l.22.55a3.68 3.68 0 0 0-.94.11l-.09-.07-.15-.45a4.11 4.11 0 0 0-.89-1.39 1.74 1.74 0 0 0 .05-.22 6.41 6.41 0 0 0 1.68 1.39Zm-1.04-11a5.65 5.65 0 0 0-.19.58 1 1 0 0 0-.08-.16 2.75 2.75 0 0 0-.35-.16Zm-2.1-1.92a7 7 0 0 0 1.21-1.11 2.32 2.32 0 0 0 .22 1.45c0 .09.1.18.15.27-.2.58-.36 1.16-.44 1.48a1.53 1.53 0 0 0-.79 0l-.22.11c-.12-.4-.27-.85-.44-1.26a4.87 4.87 0 0 0-.28-.56Zm-.72 20.33a3.72 3.72 0 0 0 .9-.39 4.51 4.51 0 0 0-.83 1.26 7.41 7.41 0 0 0-.43 1.78l2.21-1.1v.27a2.66 2.66 0 0 0-.68.33 3.84 3.84 0 0 0-.81.84 1.89 1.89 0 0 0-1.15 0 .92.92 0 0 0-.29-.23 2.43 2.43 0 0 0-.72.16 1 1 0 0 0-.3-.3 2.13 2.13 0 0 0 .42-.23 2.09 2.09 0 0 0 .94-1.4v-.12a1.3 1.3 0 0 0 0-.28l-.07-.1c0-.09 0-.19-.07-.3l.77-.21v.08l.09-.11Zm-.89-8.79a6.26 6.26 0 0 0-.6-.81 3.17 3.17 0 0 0-1-.75l.51.13a3.24 3.24 0 0 0 1.88.6 5.24 5.24 0 0 0-.83.83Zm.54-17.24a3.71 3.71 0 0 0-.16.47l-.19-.08a1.41 1.41 0 0 0-.45-.07Zm-.2 3.11v.13a5.5 5.5 0 0 0-.45 1.42 3.53 3.53 0 0 0-.46-.32 1.45 1.45 0 0 0-.42-.16 10 10 0 0 0-.06-1.64 2.37 2.37 0 0 0-.11-.46 2.87 2.87 0 0 0 1.46 1.03Zm-4.93-1.13.79.22a3.67 3.67 0 0 0 1.37 1.34l1.12.63a2.24 2.24 0 0 0-.89.09s-.62.6 0 1.92a4.61 4.61 0 0 0 2.34 2l.47.19a4.64 4.64 0 0 0-2.49 1.26 1.18 1.18 0 0 0-.17-.2 3.42 3.42 0 0 0-.84-.12 1.37 1.37 0 0 0-.12-1.51 2.9 2.9 0 0 0-1.17-.14 10.43 10.43 0 0 0 .24-1.19 3.57 3.57 0 0 0 0-.56h.07a12 12 0 0 0 0-1.92 3.25 3.25 0 0 0-1-2.11Zm-.81 13.19 1.23-.58a5.64 5.64 0 0 0 1.42-1 4.71 4.71 0 0 0 1.25 1.88l-.14.15a3.86 3.86 0 0 0-2.87-.27l-.59.25a2.82 2.82 0 0 0-.59.06 3.47 3.47 0 0 0 .25-.49Zm-.18 20.46c0 .22-.07.41-.09.53a1.51 1.51 0 0 0-.18.09h-.09s.12-.28.32-.62Zm-.53.46.11.18h-.18a1.46 1.46 0 0 0 .03-.18Zm-.1 9.86c-.07.1-.38.65.19 1.59a2.22 2.22 0 0 0 .19.27 1.53 1.53 0 0 0-.58.27 2.6 2.6 0 0 0-.35.32 1.91 1.91 0 0 0-.61-1.55 2.29 2.29 0 0 0-1.77.29 3 3 0 0 0-.71.78 3.65 3.65 0 0 0-.86 1.23 2.1 2.1 0 0 0-.53.11l.17-.25a4 4 0 0 0 .79-3.06 1.39 1.39 0 0 0-.06-.19 5.12 5.12 0 0 0 1.17.13v.72s.72-.38 1.51-.82l1.07-.09Zm-3.13-7-.25.1.32-.18Zm.43 2.93.27-.12.07.05a1.58 1.58 0 0 0-.4 1.18 3.13 3.13 0 0 0-.36-.19 4.44 4.44 0 0 0 .38-.91Zm1.74-7.6a1 1 0 0 0 0-.15c0 .06 0 .11.07.17a2.25 2.25 0 0 0-.55.06v-.32Zm-.16-2.22Zm.05-21.85-.09.19h-.23Zm-.16 19.42a4.78 4.78 0 0 0 .64.43l.37.2a2.45 2.45 0 0 0-.94.21 1.19 1.19 0 0 0-.21 1 2.58 2.58 0 0 0-.33-.52c0-.06.08-.11.11-.17a2.94 2.94 0 0 0 .32-1.14Zm-.92-20.95.45.14a15.73 15.73 0 0 0-.31 1.71l-.15.07q-.07-.25-.15-.48a6.32 6.32 0 0 0-1.15-2.1 4.49 4.49 0 0 0 1.27.67Zm-2.17 3.75a3.13 3.13 0 0 0 .36-1.12 4.78 4.78 0 0 0 .64.43h.09a7.91 7.91 0 0 0-.87 2.31c0 .14-.05.29-.08.43a1.93 1.93 0 0 0-.3-.61 1.55 1.55 0 0 0-.06-1.17 2.27 2.27 0 0 0 .18-.26Zm-.55 5.51a3.6 3.6 0 0 0 1.1 1.18l-.15.07a2.91 2.91 0 0 0-.88.9h-.11a2.51 2.51 0 0 0-.57.08 1.16 1.16 0 0 0-.27-.77h-.06a16.15 16.15 0 0 0 .9-1.45Zm-1.61 43.92q.27-.1.54-.24a3 3 0 0 0-.22.92 3.91 3.91 0 0 0-.59-.47 1.94 1.94 0 0 0 .23-.2Zm-.36 10.36v.19a1.73 1.73 0 0 0-.16.3l-.15.38a1.85 1.85 0 0 0-.28-.78l.7-.36a2.76 2.76 0 0 1-.15.28Zm-.39-14.1a1.19 1.19 0 0 0 .09-.15l.06.16-.05.05Zm.41-17.44a2.45 2.45 0 0 0-.43.34 2.22 2.22 0 0 0-1-.16c-.07-.27-.15-.54-.24-.8a1.34 1.34 0 0 0-.07-.18l1 .4c.12.3.21.5.21.5l.2-.34.34.14Zm-3.34-22.77a4.86 4.86 0 0 0 1.79-1.46 3.72 3.72 0 0 0 .74-.68 5.1 5.1 0 0 0 .75-.09.57.57 0 0 0 0 .13 6.84 6.84 0 0 0-.91 1.44 2.07 2.07 0 0 0-1.12.35 4.6 4.6 0 0 0-1.42 2 2.53 2.53 0 0 0-1-.8 3.93 3.93 0 0 0 .65-.64Zm.38 23.6-.08.06a.57.57 0 0 1 0-.13Zm-.32 3.38a4 4 0 0 0 .14.55h-.05a1.57 1.57 0 0 0-.25-.14 1.69 1.69 0 0 0 0-.23Zm-.19-22.87.32-.18-.09.19a.87.87 0 0 0-.27 0Zm-.2 27.43a3.79 3.79 0 0 0-.74 1.08 1.27 1.27 0 0 0-.43 0 7.75 7.75 0 0 0-.69-.71 1 1 0 0 1 .08-.14.34.34 0 0 0 .08-.09s.4-.53.81-1.18a5 5 0 0 0 .85 1.05Zm-.86-35.87a1.81 1.81 0 0 0 0-.23c.15-.06.34-.13.53-.22a4.12 4.12 0 0 0-.31 1.46v.12a2.23 2.23 0 0 0-.79-.09 2.56 2.56 0 0 0 .53-1.03Zm-1.86 8.42.09-.17a3 3 0 0 0 1.83-.45 2.57 2.57 0 0 0 .62-.61c-.12.55-.2 1.09-.24 1.38a1.67 1.67 0 0 0-.49.31 1.93 1.93 0 0 0-.24.25 2.07 2.07 0 0 0-.55-.39 1.7 1.7 0 0 0-1.19 0Zm-3.53 2.53a1.59 1.59 0 0 0-.52-1.13 3 3 0 0 0 .71-.94c.59-1.32 0-1.92 0-1.92a2.34 2.34 0 0 0-.74-.1 1.41 1.41 0 0 0 .14-.86 2.53 2.53 0 0 0-1-.8A3.74 3.74 0 0 0 189 160l.79-.33a4.88 4.88 0 0 0 1.61-1.07v.91l.35-.24a6.73 6.73 0 0 0-.47.93 21.2 21.2 0 0 0-.82 2.59l.4-.17v.22c-.54.51-1 1-1 1l1.13.29v.06a16.5 16.5 0 0 0 .77 2.2l.35-.59a2.13 2.13 0 0 0 .19 1 2.48 2.48 0 0 0-1.53-.35 3.43 3.43 0 0 0-1.47.7Zm1.24 18.19a4.29 4.29 0 0 0 .62.14c-.07.16-.13.32-.19.48a3.7 3.7 0 0 0-.47 0 3.66 3.66 0 0 0 0-.61Zm0 23.44a2.31 2.31 0 0 0-1.15-1.59l.26-.21a4.35 4.35 0 0 0 1.59-2.33c.17-1.25-.58-1.54-.58-1.54a2.49 2.49 0 0 0-1.15.38l-.07-.08a2 2 0 0 0-.35-.08l.64-.36a3.19 3.19 0 0 0 .42-.26l.11.25.59-.77a5.4 5.4 0 0 0 1.69.93h.11a4.67 4.67 0 0 0-.46 1.32 10.36 10.36 0 0 0-.11 1.31 5.68 5.68 0 0 0-.3 1.08 17.82 17.82 0 0 0-.16 2.56s1-.51 1.88-1a5.56 5.56 0 0 0 1.21-.94c-.06.53-.08.92-.08.92l1.73-.8a4.59 4.59 0 0 0-.5 1.41 13.12 13.12 0 0 0-.18 1.56 2.07 2.07 0 0 0-1.22.35 3.39 3.39 0 0 0-.35.32 1.91 1.91 0 0 0-.61-1.55 2.29 2.29 0 0 0-1.77.29 4.34 4.34 0 0 0-1.45 2.74c0 .26-.07.55-.1.83a2.29 2.29 0 0 0-1.23 0l-.1-.15a.69.69 0 0 0-.11-.13c.24-.33.62-.87 1-1.41a4 4 0 0 0 .79-3.04Zm-5.87-29.14.35.17c-.14.1-.27.21-.4.32a1.46 1.46 0 0 0 .04-.48Zm-4.49 6.37c.06.16.11.3.16.4a2.42 2.42 0 0 0-.39-.21Z" class="cls-3"/><path d="M173.57 203a17.13 17.13 0 0 0-.32 2.51s1-.44 1.91-.89a4 4 0 0 0 2.17-2.23 2.52 2.52 0 0 0 0-1.45 1.15 1.15 0 0 0 .46-1.19 2.37 2.37 0 0 0-1.42-.67 4.18 4.18 0 0 0-2.51.8 12.8 12.8 0 0 0-1.48 1.32l1.78.31a5 5 0 0 0-.59 1.49ZM191.07 152.86a17.29 17.29 0 0 0-.32 2.51s1-.44 1.91-.89a4 4 0 0 0 2.17-2.23 2.52 2.52 0 0 0 0-1.45 1.14 1.14 0 0 0 .45-1.18 2.32 2.32 0 0 0-1.42-.68 4.12 4.12 0 0 0-2.5.81 12.8 12.8 0 0 0-1.48 1.32s.88.16 1.78.3a5.16 5.16 0 0 0-.59 1.49ZM197.6 147a4.34 4.34 0 0 0-.67 1.67 12.23 12.23 0 0 0-.12 2s.8-.55 1.56-1.1a4.28 4.28 0 0 0 1.72-2.19 1.4 1.4 0 0 0-.34-1.46 1.09 1.09 0 0 0 .16-1 2.39 2.39 0 0 0-1.48-.53 4.11 4.11 0 0 0-2.41 1 11.85 11.85 0 0 0-1.35 1.46l1.91.14a7 7 0 0 0 1.02.01ZM180.71 203.75a1.47 1.47 0 0 0 .09-1.55 1.64 1.64 0 0 0-1.24-.17 3 3 0 0 0-1.53 1.52 12.5 12.5 0 0 0-.64 1.67l1.46-.29a2.84 2.84 0 0 0 1.86-1.18Z" class="cls-3"/><path d="m83.89 300.63.37 94.81-1.18 17.2 3 .2 1.12-16.32L108 329l20.81 67.17 1.19 16.67 3-.2-1.14-16.56.31-95.3 14.18 112.14 3-.37L113.69 131h3.69v-3H98.66v3h3.69L66.73 412.55l3 .37Zm32.94-79.77 3.29 48-10.51-28.44ZM108 236.12l-7.69-20.8h15.38Zm11.65 40.1H96.36L108 244.7Zm-23.75-7.37 3.28-48 7.23 19.55ZM105.36 131h5.31l5.58 81.34H99.79Zm-8.56 81.35h-1.74l3.8-30Zm20.37-30 3.81 30h-1.75Zm4.18 33 7.71 60.9h-5.45l-4.17-60.9Zm-1 63.88L108 319l-12.29-39.8Zm-33.34-3 7.7-60.9h1.89l-4.17 60.9Zm42 78.83-5.2-75.85h5.45ZM109.59 324l11.71-37.88 6.7 97.16Zm-3.11 0-18.43 59.58 6.68-97.48Zm-19.41 30.3-.29-75.1h5.44Z"/><path d="m71.15 114.35-18.57 6.83 7 21.57 19-15.39a38.73 38.73 0 0 0 3.71 3.76l-12.68 15.21 16.83 15.19 8.78-22.82a39 39 0 0 0 5.09 1.41l-3.37 19.48 22.16 4.75-3.8-24.16a37.83 37.83 0 0 0 5.1-1.34l6.83 18.57 21.57-7-15.39-19a38.73 38.73 0 0 0 3.76-3.71l15.21 12.68 15.19-16.82-22.82-8.78a37.86 37.86 0 0 0 1.4-5.09l19.49 3.36 4.75-22.16-24.16 3.81a38 38 0 0 0-1.34-5.11l18.57-6.83-7-21.57-19 15.39a38.63 38.63 0 0 0-3.71-3.75l12.68-15.22-16.83-15.19-8.77 22.82a39.41 39.41 0 0 0-5.09-1.4l3.36-19.49-22.16-4.74 3.81 24.15a37.58 37.58 0 0 0-5.11 1.34l-6.83-18.57-21.57 7 15.39 19a38.63 38.63 0 0 0-3.75 3.71L63.66 63.56 48.47 80.39l22.82 8.78a37.46 37.46 0 0 0-1.4 5.09L50.4 90.89l-4.74 22.16 24.15-3.8a37.83 37.83 0 0 0 1.34 5.1Zm-.36-5.26 17.26-2.72V103h16l-13.85 8-1.76-3-16.36 6a36.64 36.64 0 0 1-1.29-4.91Zm1.43-19.57 16.31 6.27 1.67-2.89 13.88 8h-16v-3.5l-17.18-3a36.67 36.67 0 0 1 1.32-4.88Zm11-16.22 11 13.57 2.89-1.67 8 13.89-13.89-8L93 88 79.64 76.88a38.12 38.12 0 0 1 3.61-3.58Zm17.65-8.56L103.62 82H107v16l-8-13.85 3-1.76L96 66a37 37 0 0 1 4.9-1.26Zm19.57 1.43-6.24 16.31 2.89 1.67-8 13.88V82h3.52l3-17.18a36.94 36.94 0 0 1 4.86 1.35Zm16.22 11-13.57 11 1.67 2.89-13.89 8 8-13.89L122 87l11.15-13.37a38 38 0 0 1 3.54 3.57Zm8.56 17.65L128 97.57v3.35h-16l13.89-8 1.75 3 16.36-6a37 37 0 0 1 1.25 4.93Zm-1.43 19.57-16.3-6.27-1.64 2.88-13.85-8h16v3.52l17.19 3a37 37 0 0 1-1.37 4.9Zm-11 16.22-11-13.57-2.9 1.67-8-13.88 13.89 8-1.76 3 13.37 11.15a38 38 0 0 1-3.6 3.66Zm-17.65 8.56-2.72-17.26h-3.34v-16l8 13.89-3 1.76 6 16.35a36.64 36.64 0 0 1-4.94 1.29Zm-19.57-1.43 6.27-16.3L99 119.8l8-13.89v16h-3.52l-3 17.19a36.7 36.7 0 0 1-4.91-1.33Zm-16.22-11 13.57-11-1.67-2.9 13.89-8-8 13.88-3.07-1.72-11.14 13.36a39.45 39.45 0 0 1-3.58-3.62Z"/><path d="M148.2 100.81h30.96v-5.95l49.82-6.12v26.36l-49.82-6.12v-5.95H148.2v-2.22zM680.1 218.82l-35.86-39.24-42.79-19.57-42.79 19.57-35.86 39.24-14.39 66.47h186.08l-14.39-66.47z"/><path d="M517.09 280.12h168.72V390.7H517.09z"/><path d="M643.65 390.7h-6v-86.69h-72.4v86.69h-6v-92.69h84.4v92.69zM617.49 240.54h-32.07v-23.71a16 16 0 1 1 32.07 0Zm-29.07-3h26.07v-20.71a13 13 0 1 0-26.07 0Z" class="cls-1"/><path d="m624.53 133.76-4.52-2.3 1.07 1.9h-18.85v-2.46a7.33 7.33 0 0 0 6.52-3.32c1.85-2.86 1.69-6.52 1.74-8.54 1.38.49 1.49-2 .23-3.33.28-.09 1.76-.67 1.58-.73l-1.4-.46a.71.71 0 0 0 0-.2c1-1.23.9-2.34-.73-2 0-.18.14-.43.14-.57a.63.63 0 0 0-.91-.58c-1.07 1.15-.88-.86-1.79-.62s-.12 1.64-.63 1.64-1.16-.32-1.52.12c-1 1.22.42 1.37.94 1.84-.65.88.12 1.06.14 1.15v.06c-.39 4-5.08 5-5.72 5.23a14.5 14.5 0 0 0-2.44 1 11 11 0 0 0-7-8.44 13.82 13.82 0 0 1 5.12 6.57 10.2 10.2 0 0 0-10-5 12.89 12.89 0 0 1 9.49 6.7c-2.67-3.41-6.82-6.11-12.79-3.31a11.45 11.45 0 0 1 10.75 3 9.84 9.84 0 0 0-11.31.61 12.13 12.13 0 0 1 6-.91 11 11 0 0 0-5.42 2.38 12.18 12.18 0 0 1 6.63-1.17c-2.74 0-5.61 1.2-8.14 4.7a11.68 11.68 0 0 1 9.95-3.09 10.26 10.26 0 0 0-7.27 2.79 12.26 12.26 0 0 1 7.43-1.44c-2.72.3-5.46 1.79-7.66 5.55 0 0 3.88-4.9 10.14-4.09.42 1.86 3.22 3.74 6.38 4.26v2.6h-16.59l-1.07-1.9h-4.65l1.3 2.3-1.3 2.3H583l1.07-1.9h16.59V170h1.55v-35.84h18.85l-1.07 1.9ZM425.82 385.08c-2.72-4.73-4.28-14.06-5.46-19.4-.44-2-.72-4.37-1.79-6.14a21.59 21.59 0 0 0-4.13-4.53 18.23 18.23 0 0 1 0-2.09c.13-2.18.38-4.91 1.67-6.53 1.76-2.2 2.75-4.72 1.76-4.5-4.76 1.06-7.09 5.95-8.19 8.08-.26-.14-.52-.26-.76-.38s-.73-.31-1.1-.45c-.08-2.45-2.94-4.73-4.34-6.9-1.94-3-2.18-6.8-3.89-1.67a14.89 14.89 0 0 0-.06 6.2c-.33-.1-.55-.19-.66-.1-.25-.76-4.22-8.58-11.2-12.2a18 18 0 0 1-8.47-10.82c-1-3.64-.88-6.2-2.92-9.6-3.22-5.37-11.28-8.39-15.87-7.77a58 58 0 0 0-22.56 8.22 80.63 80.63 0 0 1-12.66 1.73c-12.46.81-30.26-3.81-42.55-1.05-4.41 1-11.16 2.2-16.11 7a48.13 48.13 0 0 0-17.32 14.43c-3.29 4.51-4.75 9.23-3.71 14.86.67 3.54 1.92 7.33.63 10.88a8 8 0 0 1-4.12 4.36c-2.36.65-4.14-1.34-6.61-1-2.11.31-3.51 3.56-6.13 4.41-.29.1.12 1.26 1.25 1.77 2.33 1 5.38 2 7.54 0 1.07-1 1.75-2.39 3-3.21.68-.46 1.78-1 2.74-1.69a8 8 0 0 0 4.3-6.24 28.16 28.16 0 0 0-.82-8.33 15.72 15.72 0 0 1 1.37-11.21c2.73-5.55 7-8.26 11.86-11.79.64-.46 1.28-.9 1.93-1.33-3.11 7-3.48 18 2.26 35.77-.32.68-.64 1.36-1 2a35 35 0 0 1-6.32 8.92c-1.67 1.68-3.06 3-2.75 5.57.45 3.57 3.77 8.19 4.36 11.78.64 3.95 3.27 14.22 3.77 14.47.18 2.41-2 4.22-1.88 6.63 0 1 10.33.32 10.08-.48a3.31 3.31 0 0 0-.2-.49 70.09 70.09 0 0 0-1.12-11.66c-.35-1.88-1-3.79-1.3-5.68a9.31 9.31 0 0 1 .35-4.61c4.1-1.76 6.67-8.14 10.8-10.67 1.25 7.73 3.41 19.8 3 27.66-.13 2.68-.54 6 1.85 7.9 1.67 1.33 3.65 1.15 5.51.53a1.6 1.6 0 0 0 2.15-.89l.32-.15a1.54 1.54 0 0 0-.19-2.78 1.31 1.31 0 0 0-.17-.24q-.36-6.42-.49-12.86c-.09-4.83-.7-10.26 1.8-14.61 1.76-3 4.42-5.44 6.4-8.34 2.08 1.12 4.14 2.29 6.29 3.28 7.55 3.47 15.35 6.84 23.69 6.88 3.56 0 3-.94 6.76-1.09-.25 8.72 7.82 19.23 8.78 27.73.07.65-2.87 5.55-2.83 6.42 0 .48 2.23.78 3.14.61l4.81.79c.67-.12-.05-6.16-.07-6.85-.17-9.62-2.09-18.78-.5-28.61a10.75 10.75 0 0 1 6.58 1.8c5 7.85 11.75 13.93 13 16.76.49 1.08-1.25 17.11 0 17a12.27 12.27 0 0 0 5.81-2.42c1.05-.79 1.63-8.82 1.47-15.19-.14-6.08-12.67-17.58-13-23.62l.45-.25c1.25-.7 11.7-6 13.21-6.65 4.57-.52 9.28-2.46 13.82-1.45a29.62 29.62 0 0 0 3.54 4.89c1.77 2 3.63 4.06 5.56 5.9 1.61 1.53 3.53 2.36 5.34 3.59 4 2.67 5.41 7.05 10 8.48 6.65 2.14 13.6-3.02 10.3-8.78ZM205.67 411.13c3-8.69 2.4-22.28 0-30.33 3.05 4.62 5 18.83 3.19 30.33ZM216.92 411.13c-2.73-7.65-2.2-19.62 0-26.71-2.79 4.07-4.59 16.59-2.92 26.71Z"/><path d="M213.87 411.13c-2.74-8.69-2.21-22.28 0-30.33-2.8 4.62-4.59 18.83-2.92 30.33Z"/><path d="M213.05 411.13c-2.73-6.29-1.91-17.33 8.68-18.17-11.81.52-13.27 9.85-11.6 18.17ZM203.15 411.13c2.21-12.58 2.65-28.74-5.05-11.5 6.59-18 9.14-3.86 8.24 11.5ZM224.52 411.13c-2.54-7.23-2-18.52 0-25.21-2.59 3.84-4.25 15.65-2.71 25.21Z"/><path d="M218.51 411.13c2.32-9.24 1.87-23.69 0-32.25 2.37 4.91 3.89 20 2.47 32.25Z"/><path d="M216.4 411.13c2.67-9.25 1.87-25.48-8.48-26.71 11.54.76 13 14.48 11.33 26.71ZM226.66 411.13c-1.88-10.45-2.25-23.89 4.29-9.56-5.6-14.93-7.77-3.21-7 9.56Z"/><path d="M224.52 411.13c3-8.69 2.4-22.28 0-30.33 3 4.62 5 18.83 3.19 30.33ZM235.77 411.13c-2.74-7.65-2.2-19.62 0-26.71-2.79 4.07-4.59 16.59-2.92 26.71Z"/><path d="M232.71 411.13c-2.73-8.69-2.2-22.28 0-30.33-2.79 4.62-4.58 18.83-2.91 30.33ZM265.84 411.36c-2.36-8.84-.89-24.11 9.73-24.83-11.82.22-13.83 13.1-12.65 24.71ZM243.37 411.13c-2.54-7.23-2-18.52 0-25.21-2.59 3.84-4.26 15.65-2.71 25.21Z"/><path d="M237.35 411.13c2.33-6.68 1.87-17.11 0-23.3 2.38 3.55 3.9 14.47 2.48 23.3Z"/><path d="M235.25 411.13c2.67-9.25 1.86-25.48-8.48-26.71 11.54.76 13 14.48 11.33 26.71ZM241.72 411.13c3-8.69 2.4-22.28 0-30.33 3.05 4.62 5 18.83 3.18 30.33ZM251.69 411.13c-2.73-7.65-2.2-19.62 0-26.71-2.79 4.07-4.59 16.59-2.92 26.71Z"/><path d="M249.17 411.13c-2.74-8.69-2.2-22.28 0-30.33-2.8 4.62-4.59 18.83-2.92 30.33ZM255.62 411.13c-2.54-7.23-2-18.52 0-25.21-2.59 3.84-4.26 15.65-2.71 25.21Z"/><path d="M249.6 411.13c2.33-9.24 1.87-23.69 0-32.25 2.38 4.91 3.9 20 2.48 32.25ZM263.67 411.13c-2.73-7.65-2.2-19.62 0-26.71-2.79 4.07-4.59 16.59-2.92 26.71Z"/><path d="M260.62 411.13c-2.74-8.69-2.21-22.28 0-30.33-2.8 4.62-4.59 18.83-2.92 30.33ZM274 411.7c-2.22-7.33-1.26-18.59 1.07-25.19-2.75 3.73-4.91 15.46-3.77 25.08ZM266.92 411.41c2.71-9.15 2.87-23.6 1.36-32.24 2.16 5 3.05 20.18 1.12 32.34Z"/><path d="M264.88 411.32c3.06-9.13 2.94-25.38-7.34-27.05 11.49 1.25 12.34 15 10.19 27.17ZM271.42 411.6c3.35-8.57 3.34-22.16 1.28-30.32 2.85 4.75 4.21 19 1.9 30.45ZM282.66 412.07c-2.41-7.77-1.38-19.7 1.12-26.69-3 3.95-5.28 16.38-4 26.57Z"/><path d="M279.61 411.94c-2.37-8.8-1.26-22.35 1.27-30.31-3 4.5-5.37 18.62-4.19 30.19ZM290.25 412.39c-2.23-7.33-1.26-18.59 1.06-25.2-2.75 3.73-4.91 15.47-3.76 25.09Z"/><path d="M284.24 412.14c2.71-9.15 2.87-23.59 1.36-32.23 2.16 5 3 20.17 1.12 32.33Z"/><path d="M282.14 412.05c3.06-9.13 2.94-25.38-7.35-27.05 11.5 1.25 12.34 15 10.2 27.17ZM293.63 412.53c-2.58-10.33-1.32-26.25 1.51-35.6-3.31 5.29-6 21.89-4.72 35.47ZM300.34 414.08c-2.41-7.76-1.37-19.69 1.13-26.69-3 3.95-5.29 16.38-4 26.57Z"/><path d="M295.1 412.6c-2.37-8.81-1.26-22.36 1.28-30.32-3 4.5-5.38 18.63-4.2 30.19Z"/><path d="M296.43 413c-1.41-9 1.12-22.36 4.49-30-3.44 4.16-7.32 18-7.37 29.58ZM302.46 413.84c2.71-9.14 2.86-23.59 1.36-32.23 2.16 5 3.05 20.17 1.11 32.33Z"/><path d="M299 413.26c3.05-9.14 2.93-25.38-7.35-27.05 11.49 1.25 12.34 15 10.19 27.17ZM256.82 411.13c-1.87-10.45-2.25-23.89 4.3-9.56-5.61-14.93-7.77-3.21-7 9.56ZM326.28 416.65c-1.28-9.06 2-24 12.65-23.48-11.77-1.2-15.31 11.34-15.53 23ZM312.26 414.72c-1.79-7.93.18-19.74 3.22-26.52-3.26 3.7-6.55 15.91-6.12 26.17Z"/><path d="M309.76 414.42c-1.67-9 .49-22.39 3.64-30.12-3.32 4.25-6.81 18.15-6.54 29.77Z"/><path d="M307.14 414.42c-1.67-9 .49-22.39 3.65-30.12-3.33 4.25-6.82 18.15-6.55 29.77ZM316.16 415.19c-1.65-7.48.2-18.63 3-25-3 3.5-6.1 15-5.72 24.71Z"/><path d="M310.19 414.47c3.42-8.9 4.71-23.29 3.88-32 1.77 5.17 1.46 20.36-1.42 32.33ZM324.15 416.16c-1.79-7.93.18-19.74 3.22-26.52-3.26 3.71-6.55 15.92-6.12 26.17Z"/><path d="M321.12 415.8c-1.67-9 .5-22.39 3.65-30.12-3.33 4.25-6.82 18.14-6.55 29.76ZM334.33 418c-1.33-7.54 1-18.6 4.09-24.88-3.18 3.37-6.74 14.76-6.76 24.44ZM327.35 416.82c3.79-8.75 5.68-23.07 5.23-31.83 1.54 5.24.59 20.4-2.79 32.24Z"/><path d="M325.33 416.49c4.14-8.69 6-24.84-4-27.73 11.26 2.62 10.44 16.39 6.85 28.2ZM331.79 417.55c4.35-8.09 6-21.59 4.92-29.93 2.26 5.05 1.89 19.4-1.78 30.45ZM342.89 419.38c-1.46-8 1-19.72 4.33-26.36-3.42 3.56-7.22 15.62-7.21 25.89Z"/><path d="M339.87 418.88c-1.28-9 1.45-22.34 4.93-29.93-3.51 4.1-7.59 17.84-7.81 29.46ZM350.39 420.61c-1.33-7.54 1-18.61 4.09-24.88-3.18 3.37-6.74 14.76-6.76 24.44Z"/><path d="M344.45 419.64c3.79-8.75 5.69-23.08 5.23-31.84 1.55 5.24.6 20.4-2.78 32.24Z"/><path d="M342.37 419.29c4.14-8.69 6-24.84-4-27.73 11.26 2.62 10.44 16.39 6.85 28.2ZM353.73 421.16c-1.32-10.57 1.85-26.22 5.78-35.16-3.92 4.85-8.58 21-8.95 34.64ZM358.19 421.89c-1.46-8 1-19.71 4.33-26.36-3.42 3.56-7.22 15.62-7.21 25.89Z"/><path d="M355.17 421.4c-1.28-9 1.45-22.34 4.93-29.94-3.51 4.11-7.59 17.84-7.81 29.47ZM359.75 422.15c3.79-8.75 5.69-23.07 5.24-31.83 1.54 5.23.59 20.39-2.79 32.23Z"/><path d="M357.29 421.75c4.14-8.7 6-24.84-4-27.74 11.26 2.62 10.44 16.39 6.85 28.2ZM317.35 415.34c-.6-10.61.65-24 5.42-9-3.77-15.49-7.33-4.12-8.1 8.65ZM366.55 423.27c-.15-10.62 1.65-23.94 5.79-8.74-3.11-15.64-7.15-4.43-8.46 8.3ZM11.18 422.27c-4.15-7.24-5.87-19.43-5-27-2 4.62-1.44 17.61 2.12 27.54Z"/><path d="M8.42 422.78c1.46-9.9-1.86-24.33-6-32.48 4.19 4.34 9.11 19.17 9.45 31.85ZM20.46 420.55C16 412.89 14.2 400 15.15 391.94c-2.18 4.91-1.61 18.67 2.19 29.19Z"/><path d="M17.19 421.15c-4.65-8.77-6.79-23.42-6-32.48-2.07 5.5-1.17 21.08 2.91 33.06ZM28.6 419c-4.15-7.24-5.87-19.43-5-27-2 4.63-1.45 17.61 2.11 27.54Z"/><path d="M22.16 420.23c.65-10.36-2.71-25.74-6.41-34.54 3.51 4.79 8.15 20.67 9.07 34.05Z"/><path d="M19.91 420.65c1-10.44-3.07-27.66-14.39-26.92C18 392.25 22.27 406.66 23 420.08ZM32.23 418.36C27 408 24.43 390.82 25.14 380.2c-2.22 6.43-1 24.7 3.64 38.8ZM39.73 418.37c-4.45-7.66-6.26-20.57-5.32-28.61-2.18 4.92-1.61 18.68 2.19 29.19Z"/><path d="M33.8 418.07c-4.66-8.77-6.79-23.42-6-32.49-2.07 5.51-1.16 21.09 2.91 33.07Z"/><path d="M35.31 418.14c-3.71-9.21-4.27-24-2.55-32.94-2.65 5.25-3.4 20.84-.62 33.19ZM41.91 417.6c.65-10.37-2.71-25.74-6.41-34.55 3.52 4.79 8.15 20.68 9.07 34.06Z"/><path d="M38.12 417.82c1-10.44-3.07-27.66-14.39-26.92 12.5-1.48 16.75 12.92 17.44 26.35ZM67.88 414.77c-3.57-9.3-3.72-26 7.71-28C62.8 388.36 62.1 402.53 64.71 415ZM52.53 416.14c-3.83-8-4.62-21-3.05-28.93-2.56 4.72-3.07 18.49-.11 29.27Z"/><path d="M49.81 416.43c-4-9.11-4.94-23.88-3.48-32.86-2.5 5.33-2.81 20.93.31 33.19Z"/><path d="M47 417.07c-4-9.11-4.94-23.88-3.48-32.86-2.5 5.32-2.81 20.93.31 33.19ZM56.78 415.7c-3.57-7.55-4.32-19.83-2.88-27.32-2.36 4.46-2.82 17.44 0 27.62Z"/><path d="M50.27 416.38c1.46-10.28-.68-25.87-3.68-34.94 3.13 5.05 6.5 21.25 6.37 34.66ZM65.51 414.78c-3.84-8-4.63-21-3.05-28.94-2.57 4.73-3.08 18.49-.12 29.27Z"/><path d="M62.2 415.12c-4-9.1-4.93-23.88-3.47-32.86-2.5 5.33-2.82 20.93.31 33.2ZM76.75 414.21c-3.25-7.68-3.48-20-1.72-27.41-2.56 4.35-3.56 17.31-1.22 27.6ZM69.06 414.7c1.89-10.21.41-25.88-2.21-35.07 2.92 5.18 5.61 21.51 4.9 34.9Z"/><path d="M66.84 414.84c2.27-10.24.29-27.83-11-28.46 12.59 0 15.08 14.85 14.14 28.26ZM74 414.39c2.65-9.66 1.09-24.38-2.08-33 3.64 4.82 6.74 20.13 5.54 32.76ZM86.18 413.62c-3.5-8.14-3.74-21.18-1.83-29-2.76 4.62-3.85 18.34-1.34 29.24Z"/><path d="M82.86 413.83c-3.57-9.27-3.92-24.07-2.08-33-2.72 5.22-3.7 20.79-1.09 33.18ZM94.44 413.1c-3.25-7.68-3.49-20-1.73-27.41-2.55 4.31-3.55 17.31-1.21 27.6Z"/><path d="M87.9 413.51c1.89-10.21.41-25.88-2.21-35.06 2.92 5.18 5.61 21.5 4.91 34.89Z"/><path d="M85.61 413.66c2.27-10.24.29-27.83-11-28.46 12.59 0 15.08 14.85 14.14 28.26ZM98.12 412.87c-4-10.9-4.43-28.28-2.44-38.74-3 6.12-4 24.4-1.06 39ZM103 412.56c-3.49-8.14-3.73-21.18-1.83-29-2.75 4.62-3.85 18.34-1.34 29.24Z"/><path d="M99.71 412.77c-3.57-9.27-3.92-24.07-2.07-33-2.72 5.22-3.7 20.79-1.1 33.18ZM104.76 412.45c1.89-10.21.41-25.88-2.21-35.06 2.91 5.18 5.6 21.5 4.9 34.89Z"/><path d="M102.05 412.62c2.27-10.24.28-27.82-11-28.46 12.59 0 15.07 14.85 14.14 28.27ZM58.09 415.56c-3.22-11.11-5.17-25.62 3.56-10.85-7.77-15.53-8.78-2.59-6.49 11.16ZM112.24 412c-2.75-11.24-4.08-25.82 4-10.69-7.12-15.84-8.67-3-7 10.88ZM447 402.65c1.92-9.83-.74-24.4-4.54-32.73 4 4.53 8.22 19.57 8 32.25ZM459.1 401c-4.1-7.86-5.31-20.84-4-28.83-2.4 4.81-2.47 18.58.85 29.26Z"/><path d="M455.8 401.42c-4.25-9-5.71-23.7-4.54-32.73-2.32 5.41-2.13 21 1.39 33.17Z"/><path d="M454.92 401.54c-3.89-6.38-4.65-18.41 6.64-20.91-12.66 2.37-12.83 12.62-9.79 21.37ZM444.25 403c.49-13.9-1.45-31.4-7.18-11.65 4.43-20.36 9.29-5.53 10.61 11.18ZM467.29 399.83c-3.81-7.42-5-19.68-3.77-27.21-2.22 4.53-2.24 17.53.86 27.61Z"/><path d="M460.81 400.73c1.12-10.33-1.53-25.84-4.83-34.8 3.3 4.94 7.2 21 7.5 34.43Z"/><path d="M458.54 401c1.49-10.38-1.8-27.76-13.15-27.55 12.56-.9 16.15 13.68 16.22 27.13ZM469.6 399.51c-3.58-11-6-25.44 3.2-11-8.27-15.27-8.86-2.3-6.12 11.36Z"/><path d="M467.29 399.83c1.92-9.83-.74-24.4-4.53-32.73 4 4.53 8.22 19.57 8 32.25ZM479.43 398.15c-4.09-7.86-5.31-20.84-4-28.83-2.4 4.81-2.46 18.58.85 29.26Z"/><path d="M476.14 398.6c-4.26-9-5.71-23.71-4.54-32.73-2.33 5.41-2.13 21 1.39 33.17ZM511.9 393.89c-3.87-9.19-4.57-25.88 6.79-28.24-12.73 2-13 16.19-10 28.54ZM487.63 397c-3.82-7.42-5-19.68-3.77-27.21-2.22 4.53-2.25 17.53.85 27.61Z"/><path d="M481.14 397.91c1.51-7.56-.54-18.74-3.49-25.14 3.1 3.47 6.37 15 6.17 24.77Z"/><path d="M478.87 398.22c1.5-10.38-1.8-27.76-13.14-27.55 12.55-.9 16.14 13.68 16.22 27.13ZM485.85 397.26c1.92-9.83-.74-24.4-4.54-32.73 4 4.52 8.22 19.57 8 32.25ZM496.61 395.76c-4.1-7.85-5.31-20.83-4-28.82-2.4 4.81-2.47 18.58.85 29.26Z"/><path d="M493.89 396.14c-4.26-9-5.71-23.71-4.54-32.73-2.33 5.4-2.14 21 1.39 33.17ZM500.84 395.18c-3.81-7.42-5-19.68-3.77-27.21-2.22 4.53-2.25 17.53.85 27.61Z"/><path d="M494.35 396.08c1.13-10.33-1.52-25.84-4.82-34.81 3.29 5 7.2 21 7.5 34.43ZM509.53 394c-4.1-7.85-5.31-20.84-4-28.82-2.4 4.81-2.47 18.58.85 29.26Z"/><path d="M506.24 394.43c-4.26-9-5.71-23.71-4.54-32.73-2.33 5.4-2.14 21 1.39 33.16ZM520.75 393c-3.5-7.57-4.14-19.87-2.62-27.34-2.41 4.43-3 17.42-.31 27.62ZM513.08 393.78c1.55-10.27-.44-25.88-3.36-35 3.09 5.08 6.31 21.31 6 34.72Z"/><path d="M510.87 394c1.93-10.31-.63-27.82-12-28.08 12.58-.38 15.55 14.35 15.06 27.78ZM518 393.31c2.33-9.74.29-24.41-3.16-32.89 3.79 4.69 7.39 19.9 6.61 32.56ZM502.14 395c-3.58-11-6-25.44 3.2-11-8.27-15.27-8.86-2.3-6.12 11.36ZM23.43 428.25h-8.39v-61.09l4.19-4.2 4.2 4.2v61.09zM38.19 428.25H29.8v-61.09l4.2-4.2 4.19 4.2v61.09zM52.95 428.25h-8.39v-61.09l4.2-4.2 4.19 4.2v61.09zM67.71 428.25h-8.39v-61.09l4.2-4.2 4.19 4.2v61.09zM82.47 428.25h-8.39v-61.09l4.2-4.2 4.19 4.2v61.09zM97.23 428.25h-8.39v-61.09l4.2-4.2 4.19 4.2v61.09zM111.99 428.25h-8.39v-61.09l4.2-4.2 4.19 4.2v61.09zM126.75 428.25h-8.39v-61.09l4.2-4.2 4.19 4.2v61.09zM141.51 428.25h-8.39v-61.09l4.2-4.2 4.19 4.2v61.09zM156.28 428.25h-8.4v-61.09l4.2-4.2 4.2 4.2v61.09zM171.04 428.25h-8.4v-61.09l4.2-4.2 4.2 4.2v61.09zM185.8 428.25h-8.4v-61.09l4.2-4.2 4.2 4.2v61.09zM200.56 428.25h-8.4v-61.09l4.2-4.2 4.2 4.2v61.09z"/><path d="M17.62 373.89h180.96v4.73H17.62zM17.62 394.54h180.96v4.73H17.62zM700.72 393.47h-8.39v-61.09l4.2-4.2 4.19 4.2v61.09zM715.49 393.47h-8.4v-61.09l4.2-4.2 4.2 4.2v61.09zM730.25 393.47h-8.4v-61.09l4.2-4.2 4.2 4.2v61.09zM745.01 393.47h-8.4v-61.09l4.2-4.2 4.2 4.2v61.09z"/><path d="M694.91 339.11h45.9v4.73h-45.9zM694.91 359.76h45.9v4.73h-45.9z"/><path d="M346.62 414.39C237.71 439.27 150 475 103.33 500H750V389.09s-215.83-17.55-403.38 25.3Z" class="cls-1"/><path d="M355.77 416c-106.44 24.39-192.2 59.44-237.77 84h632V391.14S539.07 373.91 355.77 416Z"/><path d="M0 417.15V500h685.81C418.88 364.34 0 417.15 0 417.15Z" class="cls-1"/><path d="M0 419.6V500h689.33C421 368.34 0 419.6 0 419.6ZM182.62 366.31s-.02.02 0 0ZM154.81 338.12a27.33 27.33 0 0 0-4 1.53.46.46 0 0 0-.28.58c-2.44.21-4.91 2.37-7.12 3.72-.28.18.68 0 1-.07 7.16-2 10.81-2.68 16.64-1.49a25 25 0 0 1 5.94 2c-6.46-2.82-15-3.58-23.49 4.38a25.5 25.5 0 0 1 15.8-4.1 31.78 31.78 0 0 0-9.58 2.64c-.65.31.12.49 1.69.31a74 74 0 0 1 13.73.08c-1.32.15-2.64.35-3.94.62-3.25.7-9 2.29-12.43 5.25-.49.42 2.09-.71 2.71-.93 4.21-1.45 8.62-1.54 13-1.62a37.32 37.32 0 0 0-5.25 2.36c-2.34 1.29-7.18 4.91-8.48 7.38-.16.29 3.56-.61 7.08-2.77 1.66-1 5.18-1.74 7-2.34-2.27 1.68-7.21 6.36-7.11 9.63 0 .51 1.36-1.77 2.51-2.71a30.1 30.1 0 0 1 6.78-4.38 14 14 0 0 1 4.36-1.13 11.05 11.05 0 0 0-5 10.3s.85-6.91 9.53-10.91c1.84 0 2.86.88 5 2.6.23.18 1.42.76 1.63.65.09.3.72 2.68.75 3.12 0 .2-.59 1.8-.65 2a1.81 1.81 0 0 0-.06 1.44c.09-.09.54-.41.56-.24a20.66 20.66 0 0 0 1.17 4.31c.1.28-2.87.45-2.78.74s3.17.4 3.22.55c.14.43.28.88.4 1.36 0 0-2.84 1.07-2.37 1.37 1 .65 1.35.3 2.71 0a6.73 6.73 0 0 1 3.26 0c.62.07 3.61.69 3.64.48a9.3 9.3 0 0 0 1.35.05c2.87 0 4.65.16 4.37-.15-1-1.17-3.72-.89-4.56-2-.36-.89-3.13-7.64-3.25-7.85a11.08 11.08 0 0 1 2.26-3.12 23.94 23.94 0 0 0 15.16-11.11 15.21 15.21 0 0 0 2.07-6c1.46-.14 2.45-2.42 2.69-3.85a1.18 1.18 0 0 0 .17-.36.55.55 0 0 0 1.08-.1c0-5.43 0-6.75-1.85-11.83.48-.12.6 1.7 1.91.75 3.16-2.28-1.18-6.05.4-6.53.74-.22 2.41-.22 3.16-.43.31-.08-2.18-.86-2.38-.9 1-.14 3.94-.32 3.44-.48l-3.73-1.13a3.1 3.1 0 0 0-.11-.51 8.15 8.15 0 0 0 1-.33c.42-.15 1-.39 1.13-.89s-.26-.68-.65-.71a2.72 2.72 0 0 0-.64.05q.28-.35.54-.72a1.67 1.67 0 0 0 .32-1.81 1.51 1.51 0 0 0-1.57-.73 4 4 0 0 0-1.18.27 2.7 2.7 0 0 0-.52.3.47.47 0 0 1-.4-.29c0-.44.36-1.06.37-1.4a1.69 1.69 0 0 0-2.44-1.44c-2.87 2.84-2.34-2.08-4.81-1.56-1.44.3 0 3.17-1.37 3.19-1.17 0-3.47-1.25-4.29 0-1 1.56 0 1.81 1.44 3-4.53 1.75-.81 4.44 1.67 2.38-.52.8-.48 1.5 0 2.68a.58.58 0 0 0-.12.1.51.51 0 0 0-.21.53s0 .08 0 .13c-.08.4-.18.81-.27 1.21-.5.92-1 1.86-1.53 2.74-.22.35-.46.68-.7 1a.26.26 0 0 0-.27.06c-2.3 2.24-5.45 3.47-7.66 5.78a.34.34 0 0 0 .33.56h.12a41.21 41.21 0 0 1-5.33 1.63 44 44 0 0 0-6.6 2.38 26.56 26.56 0 0 0-2.8 1.44c-1.2-7.1-5.9-22.46-24.09-21.25 0 0 15.49 1 20.34 15.91-4.41-6.6-13-14.64-27-9.28 0 0 16.8-4 25.56 11.48a22.38 22.38 0 0 0-4.82-4.45 22.92 22.92 0 0 0-7.55-3.46 18.93 18.93 0 0 0-8.27-.12c-.89.19-.13.33.3.33a23.74 23.74 0 0 1 7.91 1 15.44 15.44 0 0 1 4 2.11c-6.55-3.08-15.4-4.22-24.23 4 0 0 16-11.49 30.85 3.56 0 .08.05.16.08.25l.24.76a20.88 20.88 0 0 0-4.56-3.63 31.51 31.51 0 0 0-6.16-2.76 27.76 27.76 0 0 0-3.82-1 29.81 29.81 0 0 0-4.33-.41c-.43 0-.18.24.23.38.23.08 2.9.67 3.24.73a32.24 32.24 0 0 1 11.41 5.42 16.82 16.82 0 0 1 3 3.1l-.28-.2a12.94 12.94 0 0 0-4.67-3.13 13.21 13.21 0 0 0-2-.6 21.18 21.18 0 0 0-10-1.59c-2.69-.33-5.62-.25-7.41 1.16a17.75 17.75 0 0 0 2.55 0 24.24 24.24 0 0 0-7.92 5.11 25.78 25.78 0 0 1 14.09-4.13Zm30.28 28.17s.56-.35.51-.62c1-1.14 2-2.25 3-3.38-.44.58-1.71 2-1.38 2.88.14.35.81-.24 1.09.06.12.73 1.27 2.89 2.09 4.85.09.21-2.69.61-2.61.82s2.94 0 3 .1c.49 1.34.7 2.44.11 2.68a2.39 2.39 0 0 0 .16.32 11.65 11.65 0 0 0-1.27-.59 9.5 9.5 0 0 0-3.11-.61c-.19-.8-1.87-6.52-1.59-6.51Z"/></g></g></svg>